<?xml version="1.0" encoding="UTF-8" standalone="no"?>
<svg
   width="1562"
   height="620"
   viewBox="0 0 1562 620"
   role="img"
   aria-labelledby="title desc"
   version="1.1"
   id="svg54"
   sodipodi:docname="forestmate_wordmark_no_bg_refined_text_nofilter.svg"
   xmlns:inkscape="http://www.inkscape.org/namespaces/inkscape"
   xmlns:sodipodi="http://sodipodi.sourceforge.net/DTD/sodipodi-0.dtd"
   xmlns="http://www.w3.org/2000/svg"
   xmlns:svg="http://www.w3.org/2000/svg">
  <sodipodi:namedview
     id="namedview54"
     pagecolor="#ffffff"
     bordercolor="#000000"
     borderopacity="0.25"
     inkscape:showpageshadow="2"
     inkscape:pageopacity="0.0"
     inkscape:pagecheckerboard="0"
     inkscape:deskcolor="#d1d1d1" />
  <title
     id="title">ForestMate 숲길동무 wordmark refined</title>
  <desc
     id="desc">Transparent SVG recreation of the ForestMate wordmark, Korean subtitle, tagline, and feature icons without the background or left emblem. Refined using pixel overlay comparison against the reference crop.</desc>
  <defs
     id="defs15">
    <linearGradient
       id="forestmateTitle"
       gradientUnits="userSpaceOnUse"
       x1="96"
       y1="125"
       x2="1530"
       y2="125">
      <stop
         offset="0%"
         stop-color="#043D34"
         id="stop1" />
      <stop
         offset="38%"
         stop-color="#044B40"
         id="stop2" />
      <stop
         offset="62%"
         stop-color="#086E8C"
         id="stop3" />
      <stop
         offset="100%"
         stop-color="#075B9E"
         id="stop4" />
    </linearGradient>
    <linearGradient
       id="koreanGradient"
       gradientUnits="userSpaceOnUse"
       x1="598"
       y1="306"
       x2="964"
       y2="306">
      <stop
         offset="0%"
         stop-color="#2A8A70"
         id="stop5" />
      <stop
         offset="100%"
         stop-color="#217986"
         id="stop6" />
    </linearGradient>
    <linearGradient
       id="tagGradient"
       gradientUnits="userSpaceOnUse"
       x1="257"
       y1="406"
       x2="1316"
       y2="406">
      <stop
         offset="0%"
         stop-color="#3F7A5C"
         id="stop7" />
      <stop
         offset="48%"
         stop-color="#2D7F84"
         id="stop8" />
      <stop
         offset="100%"
         stop-color="#216DA8"
         id="stop9" />
    </linearGradient>
    <linearGradient
       id="lineLeft"
       gradientUnits="userSpaceOnUse"
       x1="225"
       y1="306"
       x2="510"
       y2="306">
      <stop
         offset="0%"
         stop-color="#BBD9CC"
         id="stop10" />
      <stop
         offset="100%"
         stop-color="#79BDAA"
         id="stop11" />
    </linearGradient>
    <linearGradient
       id="lineRight"
       gradientUnits="userSpaceOnUse"
       x1="1052"
       y1="306"
       x2="1320"
       y2="306">
      <stop
         offset="0%"
         stop-color="#67B6B7"
         id="stop12" />
      <stop
         offset="100%"
         stop-color="#6DBCD2"
         id="stop13" />
    </linearGradient>
    <linearGradient
       id="leafGreen"
       gradientUnits="userSpaceOnUse"
       x1="480"
       y1="288"
       x2="1088"
       y2="321">
      <stop
         offset="0%"
         stop-color="#80BC92"
         id="stop14" />
      <stop
         offset="100%"
         stop-color="#5AA9B9"
         id="stop15" />
    </linearGradient>
    <filter
       id="microShadow"
       x="-5%"
       y="-10%"
       width="110%"
       height="120%">
      <feDropShadow
         dx="0"
         dy="1.0"
         stdDeviation="0.65"
         flood-color="#003A35"
         flood-opacity="0.10" />
    </filter>
  </defs>
  <!-- Primary wordmark: lighter + wider tracking than previous draft -->
  <path
     d="m 101.27881,221 h 36.8457 v -72.25586 h 81.1084 v -30.625 h -81.1084 V 74.334961 h 87.08985 V 42.75293 H 101.27881 Z m 213.46435,2.87109 c 38.40088,0 64.24073,-26.31836 64.24073,-65.91552 0,-39.59717 -25.83985,-66.154789 -64.24073,-66.154789 -38.28125,0 -64.12109,26.557619 -64.12109,66.154789 0,39.59716 25.83984,65.91552 64.12109,65.91552 z m 0,-28.5913 c -17.10693,0 -28.5913,-13.87696 -28.5913,-37.32422 0,-23.5669 11.604,-37.56348 28.5913,-37.56348 17.10694,0 28.71094,13.99658 28.71094,37.56348 0,23.44726 -11.48437,37.32422 -28.71094,37.32422 z M 413.36377,221 h 35.29053 v -68.42773 c 0,-19.021 10.64697,-29.06983 25.12207,-29.06983 5.98144,0 12.56103,0.47852 15.19287,0.59815 V 94.07373 c -2.8711,-0.119628 -6.34033,-0.239257 -10.40772,-0.239257 -16.62841,0 -26.19873,7.177737 -30.86425,22.370607 h -0.35889 V 94.671875 h -33.97461 z m 162.98096,2.87109 c 30.625,0 55.02929,-17.46582 59.69482,-42.58789 h -32.18018 c -3.22998,9.80957 -12.68066,16.14991 -26.43798,16.14991 -18.54248,0 -29.30909,-12.08252 -29.90723,-30.74463 h 89.84131 v -9.45069 c 0,-38.5205 -25.00244,-65.437009 -62.20703,-65.437009 -36.24756,0 -61.96778,27.634279 -61.96778,66.154789 0,38.40088 24.88282,65.91552 63.16407,65.91552 z m -28.59131,-79.67285 c 1.91406,-15.79101 12.32178,-25.60058 28.11279,-25.60058 15.91065,0 26.43799,9.80957 28.23242,25.60058 z m 176.02051,79.91211 c 33.01757,0 55.98632,-16.50879 55.98632,-41.75049 0,-18.54248 -11.72363,-29.54834 -37.20459,-34.57275 l -23.92578,-4.66553 c -9.68994,-2.03369 -15.3125,-6.2207 -15.3125,-12.68066 0,-7.53662 7.29737,-13.39844 19.37989,-13.39844 12.4414,0 21.05468,7.53662 21.29394,17.70508 h 32.65869 c -0.71777,-26.31836 -22.25097,-42.707521 -54.90967,-42.707521 -32.89794,0 -53.59375,15.791011 -53.59375,39.716801 0,19.61914 13.03956,32.06054 37.56348,36.8457 l 22.13135,4.30664 c 10.28808,2.03369 16.38916,5.98144 16.38916,12.68066 0,7.77588 -8.01514,13.27881 -21.05469,13.27881 -13.75732,0 -21.89209,-6.57959 -23.20801,-17.58545 h -34.69238 c 2.15332,27.15576 25.72022,42.82715 58.49854,42.82715 z M 888.66895,94.671875 H 862.8291 V 60.21875 h -35.29053 v 34.453125 h -21.77246 v 27.634275 h 21.77246 v 65.19776 c 0,22.96875 12.8003,33.49609 40.5542,33.49609 h 20.57618 v -27.63428 h -13.51807 c -9.57031,0 -12.32178,-2.75146 -12.32178,-11.36474 v -59.69483 h 25.83985 z M 922.21143,221 h 36.12793 v -84.69727 c 0,-11.84326 -0.59815,-31.82128 -1.07666,-50.722652 6.10107,19.978032 12.08251,39.716802 15.79101,50.722652 L 1003.5591,221 h 29.9072 l 30.1465,-84.69727 c 3.8281,-11.36474 10.0488,-32.41943 16.1499,-53.234859 -0.4785,19.619139 -1.1963,40.793459 -1.1963,53.234859 V 221 h 36.0083 V 42.75293 h -53.7134 l -29.0698,83.02246 c -3.23,10.52734 -8.8525,29.30908 -13.1592,44.62158 -4.3066,-15.3125 -9.9292,-34.09424 -13.2788,-44.62158 L 975.9248,42.75293 h -53.71337 z m 271.84327,2.15332 c 19.3799,0 30.2661,-7.65625 36.9653,-19.97803 h 0.4785 V 221 h 34.4532 v -85.6543 c 0,-27.03613 -19.8584,-43.305661 -54.4312,-43.305661 -34.6924,0 -55.2685,16.508791 -56.8237,42.587891 h 33.1372 c 0.8374,-9.68994 9.4507,-16.38916 22.6098,-16.38916 12.92,0 20.6958,6.45996 20.6958,15.79102 v 0.8374 c 0,8.13476 -8.1347,9.21142 -31.2231,11.48437 -26.3184,2.39258 -49.2871,10.52735 -49.2871,38.99903 0,25.2417 18.1836,37.80273 43.4253,37.80273 z m 9.8096,-24.52393 c -11.8433,0 -19.4996,-5.26367 -19.4996,-14.23584 0,-10.04882 9.5704,-14.71435 21.6529,-16.50878 11.3647,-1.79444 21.2939,-3.46924 25.3613,-5.74219 v 12.68066 c 0,13.6377 -10.5273,23.80615 -27.5146,23.80615 z M 1378.4492,94.671875 h -25.8398 V 60.21875 h -35.2906 v 34.453125 h -21.7724 v 27.634275 h 21.7724 v 65.19776 c 0,22.96875 12.8003,33.49609 40.5542,33.49609 h 20.5762 v -27.63428 h -13.518 c -9.5704,0 -12.3218,-2.75146 -12.3218,-11.36474 v -59.69483 h 25.8398 z m 88.5718,129.199215 c 30.625,0 55.0293,-17.46582 59.6948,-42.58789 h -32.1802 c -3.2299,9.80957 -12.6806,16.14991 -26.4379,16.14991 -18.5425,0 -29.3091,-12.08252 -29.9073,-30.74463 h 89.8413 v -9.45069 c 0,-38.5205 -25.0024,-65.437009 -62.207,-65.437009 -36.2476,0 -61.9678,27.634279 -61.9678,66.154789 0,38.40088 24.8828,65.91552 63.1641,65.91552 z m -28.5913,-79.67285 c 1.9141,-15.79101 12.3218,-25.60058 28.1128,-25.60058 15.9106,0 26.438,9.80957 28.2324,25.60058 z"
     id="text15"
     style="font-weight:700;font-size:245px;font-family:'Inter Display', Inter, Arial, sans-serif;letter-spacing:15;fill:url(#forestmateTitle)"
     aria-label="ForestMate" />
  <!-- Korean subtitle ornaments -->
  <path
     d="M225 306.5 H461"
     stroke="url(#lineLeft)"
     stroke-width="2.2"
     stroke-linecap="round"
     opacity="0.95"
     id="path15" />
  <path
     d="M1102 306.5 H1338"
     stroke="url(#lineRight)"
     stroke-width="2.2"
     stroke-linecap="round"
     opacity="0.95"
     id="path16" />
  <path
     d="M479 315 C484 296 497 289 512 288 C509 304 498 318 481 319 C488 310 497 303 507 298 C496 302 487 308 479 315 Z"
     fill="url(#leafGreen)"
     opacity="0.92"
     id="path17" />
  <path
     d="M1086 315 C1081 296 1068 289 1053 288 C1056 304 1067 318 1084 319 C1077 310 1068 303 1058 298 C1069 302 1078 308 1086 315 Z"
     fill="url(#leafGreen)"
     opacity="0.92"
     id="path18" />
  <path
     d="m 598.4,303.188 v 4.624 h 24.956 v 6.936 h -18.768 v 4.556 h 9.316 v 11.424 h -9.86 v 4.624 h 44.336 v -4.624 h -9.792 v -11.424 h 9.248 v -4.556 h -18.904 v -6.936 h 25.024 v -4.624 z m 21.08,16.116 h 13.532 v 11.424 H 619.48 Z m 3.808,-43.928 v 2.788 c 0,7.82 -10.676,14.416 -21.76,15.912 l 2.108,4.42 c 9.52,-1.428 18.7,-6.188 22.576,-13.124 3.944,6.868 12.988,11.696 22.508,13.124 l 2.04,-4.42 c -10.88,-1.428 -21.692,-8.296 -21.692,-15.912 v -2.788 z m 123.41601,-0.612 v 31.416 h 5.644 v -31.416 z m -40.596,2.992 v 4.624 h 21.76 c -0.884,9.724 -9.588,17.068 -24.888,20.468 l 2.04,4.556 c 18.156,-4.148 29.036,-13.872 29.036,-29.648 z m 6.664,53.448 v 4.488 h 41.684 v -4.488 h -36.108 v -7.14 h 34 v -14.96 h -39.78 v 4.488 h 34.136 v 6.256 h -33.932 z m 120.492,-17.136 c -13.124,0 -21.08,4.012 -21.08,11.084 0,7.072 7.956,11.084 21.08,11.084 13.124,0 21.012,-4.012 21.012,-11.084 0,-7.072 -7.888,-11.084 -21.012,-11.084 z m 0,4.42 c 9.588,0 15.368,2.448 15.368,6.664 0,4.284 -5.78,6.664 -15.368,6.664 -9.656,0 -15.368,-2.38 -15.368,-6.664 0,-4.216 5.712,-6.664 15.368,-6.664 z m -20.74,-40.868 v 20.4 h 18.02 v 7.072 h -25.024 v 4.556 h 55.624 v -4.556 h -25.092 v -7.072 h 18.564 v -4.556 h -36.516 v -11.356 h 36.108 v -4.488 z m 103.62801,0.544 v 24.004 h 41.48 v -24.004 z m 35.904,4.556 v 14.96 h -30.396 v -14.96 z m -43.044,27.744 v 4.624 h 24.956 v 21.148 h 5.576 v -21.148 h 25.228 v -4.624 z"
     id="text18"
     style="font-size:68px;font-family:'Noto Sans CJK KR', NanumSquare, sans-serif;letter-spacing:41;fill:url(#koreanGradient)"
     aria-label="숲길동무" />
  <!-- English tagline -->
  <path
     d="m 248.03125,392.17773 h 10.20508 V 420 h 4.79101 v -27.82227 h 10.16211 v -4.18945 h -25.1582 z M 289.97461,420 h 4.5332 v -13.40625 c 0,-3.69531 2.08399,-5.43555 4.64063,-5.43555 1.05273,0 2.04101,0.15039 2.38476,0.21485 v -4.23243 c -0.36523,-0.043 -0.96679,-0.10742 -1.65429,-0.10742 -2.87891,0 -4.64063,1.48242 -5.47852,3.95313 h -0.0859 v -3.67383 h -4.33984 z m 38.29101,0.36523 c 3.91016,0 5.75782,-1.76171 6.70313,-3.58789 h 0.0859 V 420 h 4.46875 v -15.55469 c 0,-4.61914 -3.41602,-7.58398 -9.00196,-7.58398 -5.67187,0 -9.3457,3.05078 -9.56054,7.36914 h 4.44726 c 0.17188,-2.08399 2.14844,-3.65235 5.04883,-3.65235 2.87891,0 4.57617,1.58985 4.57617,3.78125 v 0.19336 c 0,1.6543 -1.41797,1.61133 -5.67187,2.12696 -4.61914,0.53711 -8.95899,1.65429 -8.95899,6.83203 0,4.5332 3.35157,6.85351 7.86328,6.85351 z m 0.92383,-3.65234 c -2.64258,0 -4.27539,-1.16016 -4.27539,-3.11523 0,-2.29883 2.23438,-3.17969 4.70508,-3.54493 2.40625,-0.34375 4.8125,-0.70898 5.43555,-1.20312 v 2.66406 c 0,2.79297 -1.86914,5.19922 -5.86524,5.19922 z M 361.63672,420 h 4.5332 v -22.6875 h -4.5332 z m 2.25586,-26.59766 c 1.61133,0 2.8789,-1.22461 2.8789,-2.77148 0,-1.56836 -1.26757,-2.79297 -2.8789,-2.79297 -1.61133,0 -2.85742,1.22461 -2.85742,2.79297 0,1.54687 1.24609,2.77148 2.85742,2.77148 z m 28.92383,-5.41406 H 388.2832 V 420 h 4.53321 z m 63.60546,32.52734 c 7.86329,0 13.75,-5.56445 13.75,-13.1914 v -3.67383 h -12.63281 v 3.97461 h 7.92774 c -0.043,5.0918 -3.95313,8.5293 -8.98047,8.5293 -6.08008,0 -10.09766,-4.87696 -10.09766,-12.13868 0,-7.30468 3.9961,-12.18164 10.07617,-12.18164 4.4043,0 7.75586,2.68555 8.65821,6.63868 h 4.83398 c -1.00976,-6.50977 -6.5957,-11 -13.55664,-11 -8.57227,0 -14.80273,6.68164 -14.80273,16.54296 0,9.71094 6.14453,16.5 14.82421,16.5 z m 43.42579,-0.0645 c 3.00781,0 5.30664,-1.28906 6.85351,-3.86719 V 420 h 4.44727 v -22.6875 h -4.53321 v 13.0625 c 0,4.21094 -2.38476,6.01562 -5.45703,6.01562 -3.1582,0 -4.98437,-1.86914 -4.98437,-5.5 V 397.3125 h -4.53321 v 14.13672 c 0,5.92969 3.54493,9.00195 8.20704,9.00195 z M 533.26172,420 h 4.5332 v -22.6875 h -4.5332 z m 2.25586,-26.59766 c 1.61133,0 2.8789,-1.22461 2.8789,-2.77148 0,-1.56836 -1.26757,-2.79297 -2.8789,-2.79297 -1.61133,0 -2.85742,1.22461 -2.85742,2.79297 0,1.54687 1.24609,2.77148 2.85742,2.77148 z m 33.11328,27.04883 c 2.96484,0 5.5,-1.26758 7.02539,-3.91015 h 0.043 V 420 h 4.44726 v -32.01172 h -4.5332 v 12.61133 h -0.043 c -1.46094,-2.51367 -4.01758,-3.73828 -6.96094,-3.73828 -5.86523,0 -9.81835,4.79101 -9.81835,11.79492 0,7.02539 3.93164,11.79492 9.83984,11.79492 z m 0.92383,-3.91015 c -3.65235,0 -6.16602,-2.77149 -6.16602,-7.88477 0,-5.13477 2.51367,-7.90625 6.16602,-7.90625 3.86718,0 6.35937,3.13672 6.35937,7.90625 0,4.76953 -2.49219,7.88477 -6.35937,7.88477 z m 39.62304,3.82421 c 3.91016,0 5.75782,-1.76171 6.70313,-3.58789 h 0.0859 V 420 h 4.46875 v -15.55469 c 0,-4.61914 -3.41602,-7.58398 -9.00196,-7.58398 -5.67187,0 -9.3457,3.05078 -9.56054,7.36914 h 4.44726 c 0.17188,-2.08399 2.14844,-3.65235 5.04883,-3.65235 2.87891,0 4.57617,1.58985 4.57617,3.78125 v 0.19336 c 0,1.6543 -1.41797,1.61133 -5.67187,2.12696 -4.61914,0.53711 -8.95899,1.65429 -8.95899,6.83203 0,4.5332 3.35157,6.85351 7.86328,6.85351 z m 0.92383,-3.65234 c -2.64258,0 -4.27539,-1.16016 -4.27539,-3.11523 0,-2.29883 2.23438,-3.17969 4.70508,-3.54493 2.40625,-0.34375 4.8125,-0.70898 5.43555,-1.20312 v 2.66406 c 0,2.79297 -1.86914,5.19922 -5.86524,5.19922 z m 36.98047,-9.77539 c 0,-4.21094 2.38477,-6.01563 5.47852,-6.01563 3.13672,0 4.96289,1.86915 4.96289,5.5 V 420 h 4.5332 v -14.13672 c 0,-5.92969 -3.54492,-9.00195 -8.20703,-9.00195 -2.98633,0 -5.30664,1.28906 -6.85352,3.86719 v -3.41602 h -4.44726 V 420 h 4.5332 z m 46.79883,13.57812 c 5.41406,0 9.41016,-3.5664 9.92578,-8.29296 h -4.57617 c -0.60156,2.64257 -2.21289,4.38281 -5.32813,4.38281 -3.93164,0 -6.25195,-3.09375 -6.25195,-7.90625 0,-4.85547 2.3418,-7.99219 6.25195,-7.99219 3.07227,0 4.91993,1.80469 5.39258,4.36133 h 4.51172 c -0.55859,-4.8125 -4.51172,-8.27149 -9.92578,-8.27149 -6.4668,0 -10.82813,4.91993 -10.82813,11.90235 0,6.93945 4.33985,11.8164 10.82813,11.8164 z m 40.46094,0 c 5.13476,0 9.17382,-3.02929 10.01172,-7.4121 h -4.36133 c -0.64453,2.14843 -2.6211,3.63085 -5.58594,3.63085 -3.97461,0 -6.25195,-2.77148 -6.40234,-6.85351 h 16.69336 v -1.22461 c 0,-7.00391 -4.16797,-11.85938 -10.5918,-11.85938 -6.1875,0 -10.57031,4.98438 -10.57031,11.90235 0,6.85351 4.08203,11.8164 10.80664,11.8164 z m -6.29493,-14.07226 c 0.38672,-3.60938 2.68555,-5.86524 6.10157,-5.86524 3.4375,0 5.75781,2.25586 6.12304,5.86524 z m 36.14258,19.80859 h 3.24414 l 3.17969,-10.97851 h -4.64062 z M 817.46094,420 h 5.07031 l 2.92187,-8.31445 h 12.91211 L 841.20117,420 h 5.17774 L 834.8418,387.98828 h -5.75782 z m 9.43164,-12.375 1.99804,-5.67188 c 0.88086,-2.64257 1.80469,-5.45703 3.09375,-9.60351 1.26758,4.14648 2.16993,6.96094 3.05079,9.60351 l 1.93359,5.67188 z m 43.9414,-19.63672 h -4.5332 V 420 h 4.5332 z m 31.80274,32.52734 c 5.13476,0 9.17383,-3.02929 10.01172,-7.4121 h -4.36133 c -0.64453,2.14843 -2.62109,3.63085 -5.58594,3.63085 -3.97461,0 -6.25195,-2.77148 -6.40234,-6.85351 h 16.69336 v -1.22461 c 0,-7.00391 -4.16797,-11.85938 -10.5918,-11.85938 -6.1875,0 -10.57031,4.98438 -10.57031,11.90235 0,6.85351 4.08203,11.8164 10.80664,11.8164 z m -6.29492,-14.07226 c 0.38672,-3.60938 2.68554,-5.86524 6.10156,-5.86524 3.4375,0 5.75781,2.25586 6.12305,5.86524 z M 933.90234,420 h 4.53321 v -13.40625 c 0,-3.69531 2.08398,-5.43555 4.64062,-5.43555 1.05274,0 2.04102,0.15039 2.38477,0.21485 v -4.23243 c -0.36524,-0.043 -0.9668,-0.10742 -1.6543,-0.10742 -2.87891,0 -4.64062,1.48242 -5.47852,3.95313 h -0.0859 v -3.67383 h -4.33985 z m 43.61914,-22.6875 h -4.59765 v -6.1875 h -4.55469 v 6.1875 h -3.99609 v 3.73828 h 3.99609 v 13.53516 c 0,3.65234 2.04102,5.41406 6.29492,5.41406 h 2.85742 v -3.73828 h -2.21289 c -1.80468,0 -2.38476,-0.58008 -2.38476,-2.25586 v -12.95508 h 4.59765 z m 28.60152,23.22461 c 5.2852,0 9.1524,-2.66406 9.1524,-6.98242 0,-3.28711 -2.0195,-5.26367 -6.4453,-6.25196 l -3.8672,-0.85937 c -2.041,-0.47266 -3.2656,-1.39649 -3.2656,-2.92188 0,-1.74023 1.6328,-3.11523 4.2109,-3.11523 2.6855,0 4.4473,1.61133 4.4902,3.82422 h 4.3399 c -0.1289,-4.57617 -3.7813,-7.41211 -8.8946,-7.41211 -5.1992,0 -8.67964,2.77148 -8.67964,6.78906 0,3.37305 2.23438,5.54297 6.50974,6.48828 l 3.7598,0.83789 c 1.9551,0.42969 3.2656,1.33203 3.2656,2.87891 0,1.80469 -1.7832,3.11523 -4.6621,3.11523 -2.9434,0 -4.6621,-1.375 -4.9199,-3.82421 h -4.46876 c 0.32226,4.91992 4.27536,7.43359 9.47456,7.43359 z m 28.7305,5.71484 h 3.2442 l 3.1796,-10.97851 h -4.6406 z M 1090.7031,420 h 4.7696 v -12.11719 h 7.0898 c 0.064,0 0.1504,0 0.2148,0 L 1109.1582,420 h 5.3711 l -6.918,-12.91211 c 3.9961,-1.43945 6.4239,-4.66211 6.4239,-9.13086 0,-6.12305 -4.2969,-9.96875 -11.1504,-9.96875 h -12.1817 z m 4.7696,-16.17773 v -11.70899 h 7.1972 c 4.125,0 6.6602,2.23438 6.6602,5.84375 0,3.60938 -2.5137,5.86524 -6.6387,5.86524 z m 48.6894,16.69335 c 5.1348,0 9.1738,-3.02929 10.0117,-7.4121 h -4.3613 c -0.6445,2.14843 -2.6211,3.63085 -5.5859,3.63085 -3.9746,0 -6.252,-2.77148 -6.4024,-6.85351 h 16.6934 v -1.22461 c 0,-7.00391 -4.168,-11.85938 -10.5918,-11.85938 -6.1875,0 -10.5703,4.98438 -10.5703,11.90235 0,6.85351 4.082,11.8164 10.8066,11.8164 z m -6.2949,-14.07226 c 0.3867,-3.60938 2.6855,-5.86524 6.1016,-5.86524 3.4375,0 5.7578,2.25586 6.123,5.86524 z m 45.9609,14.09375 c 5.2852,0 9.1524,-2.66406 9.1524,-6.98242 0,-3.28711 -2.0196,-5.26367 -6.4453,-6.25196 l -3.8672,-0.85937 c -2.041,-0.47266 -3.2657,-1.39649 -3.2657,-2.92188 0,-1.74023 1.6329,-3.11523 4.211,-3.11523 2.6855,0 4.4472,1.61133 4.4902,3.82422 h 4.3399 c -0.1289,-4.57617 -3.7813,-7.41211 -8.8946,-7.41211 -5.1992,0 -8.6797,2.77148 -8.6797,6.78906 0,3.37305 2.2344,5.54297 6.5098,6.48828 l 3.7598,0.83789 c 1.9551,0.42969 3.2656,1.33203 3.2656,2.87891 0,1.80469 -1.7832,3.11523 -4.6621,3.11523 -2.9434,0 -4.6621,-1.375 -4.9199,-3.82421 h -4.4688 c 0.3223,4.91992 4.2754,7.43359 9.4746,7.43359 z m 39.8594,-0.0215 c 5.4141,0 9.4102,-3.5664 9.9258,-8.29296 h -4.5762 c -0.6016,2.64257 -2.2129,4.38281 -5.3281,4.38281 -3.9317,0 -6.252,-3.09375 -6.252,-7.90625 0,-4.85547 2.3418,-7.99219 6.252,-7.99219 3.0723,0 4.9199,1.80469 5.3926,4.36133 h 4.5117 c -0.5586,-4.8125 -4.5117,-8.27149 -9.9258,-8.27149 -6.4668,0 -10.8281,4.91993 -10.8281,11.90235 0,6.93945 4.3398,11.8164 10.8281,11.8164 z m 38.9785,-0.0645 c 3.0078,0 5.3067,-1.28906 6.8535,-3.86719 V 420 h 4.4473 v -22.6875 h -4.5332 v 13.0625 c 0,4.21094 -2.3848,6.01562 -5.457,6.01562 -3.1582,0 -4.9844,-1.86914 -4.9844,-5.5 V 397.3125 h -4.5332 v 14.13672 c 0,5.92969 3.5449,9.00195 8.207,9.00195 z m 43.1035,0.0645 c 5.1348,0 9.1739,-3.02929 10.0118,-7.4121 h -4.3614 c -0.6445,2.14843 -2.6211,3.63085 -5.5859,3.63085 -3.9746,0 -6.252,-2.77148 -6.4024,-6.85351 h 16.6934 v -1.22461 c 0,-7.00391 -4.168,-11.85938 -10.5918,-11.85938 -6.1875,0 -10.5703,4.98438 -10.5703,11.90235 0,6.85351 4.082,11.8164 10.8066,11.8164 z m -6.2949,-14.07226 c 0.3867,-3.60938 2.6856,-5.86524 6.1016,-5.86524 3.4375,0 5.7578,2.25586 6.123,5.86524 z"
     id="text19"
     style="font-weight:500;font-size:44px;font-family:'Inter Display', Inter, Arial, sans-serif;letter-spacing:17;fill:url(#tagGradient)"
     aria-label="Trail Guidance, Alerts, Rescue" />
  <!-- Feature row -->
  <g
     id="features"
     transform="translate(44 0)">
    <circle
       cx="65"
       cy="557"
       r="52"
       fill="#B9DEAD"
       opacity="0.52"
       id="circle19" />
    <circle
       cx="524"
       cy="557"
       r="52"
       fill="#A9E3CD"
       opacity="0.58"
       id="circle20" />
    <circle
       cx="909"
       cy="557"
       r="52"
       fill="#9DD8D4"
       opacity="0.58"
       id="circle21" />
    <circle
       cx="1317"
       cy="557"
       r="52"
       fill="#9CCDF3"
       opacity="0.62"
       id="circle22" />
    <path
       d="M436 523 L436 590"
       stroke="#8EC4B5"
       stroke-width="2"
       opacity="0.8"
       id="path22" />
    <path
       d="M815 523 L815 590"
       stroke="#8EC4B5"
       stroke-width="2"
       opacity="0.8"
       id="path23" />
    <path
       d="M1228 523 L1228 590"
       stroke="#78B9C2"
       stroke-width="2"
       opacity="0.85"
       id="path24" />
    <!-- Signpost icon -->
    <g
       transform="translate(65 557)"
       stroke="#337B5C"
       stroke-width="4.7"
       stroke-linecap="round"
       stroke-linejoin="round"
       fill="none"
       id="g31">
      <path
         d="M0 -35 V36"
         id="path25" />
      <path
         d="M-28 -24 H22 C27 -24 30 -20 30 -16 C30 -12 27 -8 22 -8 H-28 Z"
         id="path26" />
      <path
         d="M28 -24 L38 -16 L28 -8"
         id="path27" />
      <path
         d="M28 -24 H-18"
         id="path28" />
      <path
         d="M24 2 H-22 C-27 2 -30 6 -30 10 C-30 14 -27 18 -22 18 H24 Z"
         id="path29" />
      <path
         d="M-28 2 L-38 10 L-28 18"
         id="path30" />
      <path
         d="M-22 18 H26"
         id="path31" />
    </g>
    <!-- Bell icon -->
    <g
       transform="translate(524 557)"
       stroke="#197A69"
       stroke-width="4.5"
       stroke-linecap="round"
       stroke-linejoin="round"
       fill="none"
       id="g36">
      <path
         d="M-23 16 H23"
         id="path32" />
      <path
         d="M-18 16 C-14 8 -13 0 -13 -11 C-13 -25 -4 -33 0 -33 C4 -33 13 -25 13 -11 C13 0 14 8 18 16"
         id="path33" />
      <path
         d="M-13 -19 C-8 -25 -3 -27 0 -27 C3 -27 8 -25 13 -19"
         id="path34" />
      <path
         d="M-6 24 C-3 29 3 29 6 24"
         id="path35" />
      <path
         d="M0 -38 V-34"
         id="path36" />
    </g>
    <!-- AI chip icon -->
    <g
       transform="translate(909 557)"
       stroke="#24746C"
       stroke-width="4.3"
       stroke-linecap="round"
       stroke-linejoin="round"
       fill="none"
       id="g40">
      <rect
         x="-24"
         y="-24"
         width="48"
         height="48"
         rx="5"
         id="rect36" />
      <path
         d="M-34 -16 H-25 M-34 -5 H-25 M-34 6 H-25 M-34 17 H-25"
         id="path37" />
      <path
         d="M34 -16 H25 M34 -5 H25 M34 6 H25 M34 17 H25"
         id="path38" />
      <path
         d="M-16 -34 V-25 M-5 -34 V-25 M6 -34 V-25 M17 -34 V-25"
         id="path39" />
      <path
         d="M-16 34 V25 M-5 34 V25 M6 34 V25 M17 34 V25"
         id="path40" />
    </g>
    <path
       d="M900.569 566 L903.618 566 L904.928 562.174 L911.14 562.174 L912.418 566 L915.543 566 L909.85 549.995 L906.282 549.995 L900.569 566 Z M905.725 559.843 L906.499 557.588 C906.98 556.117 907.465 554.581 908.066 552.563 C908.668 554.581 909.139 556.117 909.613 557.588 L910.366 559.843 L905.725 559.843 Z M919.572 549.995 L916.736 549.995 L916.736 566 L919.572 566 L919.572 549.995 Z"
       fill="#24746C"
       id="path41" />
    <!-- B2G building icon -->
    <g
       transform="translate(1317 557)"
       stroke="#1465A2"
       stroke-width="4.3"
       stroke-linecap="round"
       stroke-linejoin="round"
       fill="none"
       id="g46">
      <path
         d="M-32 -18 L0 -36 L32 -18 Z"
         id="path42" />
      <path
         d="M-25 -14 H25"
         id="path43" />
      <path
         d="M-21 21 H21"
         id="path44" />
      <path
         d="M-30 30 H30"
         id="path45" />
      <path
         d="M-18 -11 V21 M-6 -11 V21 M6 -11 V21 M18 -11 V21"
         id="path46" />
    </g>
    <g
       fill="#154D49"
       opacity="0.98"
       id="g54">
      <path
         d="M139.516 546 L142.738 546 L142.738 539.457 L146.398 539.457 C150.391 539.457 152.953 537.199 152.953 533.621 C152.953 530.059 150.453 527.812 146.461 527.812 L139.516 527.812 L139.516 546 Z M142.738 536.699 L142.738 530.57 L146.277 530.57 C148.449 530.57 149.781 531.73 149.781 533.621 C149.781 535.527 148.449 536.699 146.277 536.699 L142.738 536.699 Z M160.68 546.293 C163.695 546.293 166.09 544.547 166.578 542.02 L163.695 542.02 C163.344 543.117 162.305 543.863 160.754 543.863 C158.68 543.863 157.484 542.461 157.41 540.359 L166.734 540.359 L166.734 539.52 C166.734 535.562 164.27 532.816 160.559 532.816 C156.945 532.816 154.395 535.648 154.395 539.566 C154.395 543.473 156.812 546.293 160.68 546.293 Z M157.434 538.234 C157.641 536.395 158.824 535.258 160.609 535.258 C162.391 535.258 163.586 536.395 163.781 538.234 L157.434 538.234 Z M168.823 546 L171.901 546 L171.901 538.699 C171.901 536.688 173.034 535.672 174.499 535.672 C175.108 535.672 175.721 535.734 175.952 535.77 L175.952 533.035 C175.709 533.012 175.366 532.988 174.952 532.988 C173.292 532.988 172.303 533.77 171.827 535.246 L171.788 535.246 L171.788 533.109 L168.823 533.109 L168.823 546 Z M182.776 546.305 C185.96 546.305 188.245 544.719 188.245 542.203 C188.245 540.312 187.062 539.188 184.511 538.652 L182.19 538.176 C181.116 537.941 180.479 537.469 180.479 536.699 C180.479 535.82 181.312 535.137 182.667 535.137 C184.069 535.137 185.011 535.977 185.034 537.125 L187.929 537.125 C187.854 534.477 185.718 532.828 182.593 532.828 C179.444 532.828 177.405 534.426 177.405 536.797 C177.405 538.75 178.698 540.008 181.163 540.52 L183.362 540.969 C184.448 541.203 185.12 541.652 185.12 542.434 C185.12 543.352 184.218 543.996 182.726 543.996 C181.19 543.996 180.284 543.277 180.151 542.02 L177.112 542.02 C177.308 544.793 179.64 546.305 182.776 546.305 Z M196.105 546.293 C199.902 546.293 202.465 543.57 202.465 539.566 C202.465 535.562 199.902 532.816 196.105 532.816 C192.309 532.816 189.746 535.562 189.746 539.566 C189.746 543.57 192.309 546.293 196.105 546.293 Z M196.105 543.719 C194.117 543.719 192.859 542.141 192.859 539.566 C192.859 536.98 194.129 535.391 196.105 535.391 C198.07 535.391 199.34 536.992 199.34 539.566 C199.34 542.129 198.082 543.719 196.105 543.719 Z M207.667 538.711 C207.667 536.516 208.875 535.551 210.484 535.551 C212.132 535.551 213.085 536.539 213.085 538.43 L213.085 546 L216.175 546 L216.175 537.941 C216.175 534.637 214.269 532.852 211.574 532.852 C209.8 532.852 208.496 533.633 207.617 535.086 L207.617 533.109 L204.589 533.109 L204.589 546 L207.667 546 L207.667 538.711 Z M222.838 546.207 C224.939 546.207 226.025 545.328 226.635 544.18 L226.686 544.18 L226.686 546 L229.713 546 L229.713 537.211 C229.713 534.523 227.721 532.852 224.365 532.852 C220.994 532.852 218.896 534.551 218.748 537.113 L221.717 537.113 C221.803 536.027 222.803 535.246 224.303 535.246 C225.779 535.246 226.658 536.027 226.658 537.125 L226.658 537.223 C226.658 538.102 225.842 538.137 223.451 538.406 C220.787 538.688 218.385 539.406 218.385 542.336 C218.385 544.914 220.275 546.207 222.838 546.207 Z M223.596 543.926 C222.252 543.926 221.385 543.328 221.385 542.312 C221.385 541.141 222.51 540.664 223.826 540.469 C225.096 540.273 226.295 540.078 226.674 539.836 L226.674 541.227 C226.674 542.727 225.611 543.926 223.596 543.926 Z M235.512 527.812 L232.434 527.812 L232.434 546 L235.512 546 L235.512 527.812 Z M238.244 546 L241.322 546 L241.322 533.109 L238.244 533.109 L238.244 546 Z M239.783 531.191 C240.834 531.191 241.627 530.438 241.627 529.434 C241.627 528.445 240.834 527.688 239.783 527.688 C238.732 527.688 237.939 528.445 237.939 529.434 C237.939 530.438 238.732 531.191 239.783 531.191 Z M243.848 546 L254.223 546 L254.223 543.484 L247.645 543.484 L247.645 543.449 L254.148 535.367 L254.148 533.109 L243.848 533.109 L243.848 535.637 L250.465 535.637 L250.465 535.672 L243.848 543.863 L243.848 546 Z M262.438 546.293 C265.453 546.293 267.848 544.547 268.336 542.02 L265.453 542.02 C265.102 543.117 264.062 543.863 262.512 543.863 C260.438 543.863 259.242 542.461 259.168 540.359 L268.492 540.359 L268.492 539.52 C268.492 535.562 266.027 532.816 262.316 532.816 C258.703 532.816 256.152 535.648 256.152 539.566 C256.152 543.473 258.57 546.293 262.438 546.293 Z M259.191 538.234 C259.398 536.395 260.582 535.258 262.367 535.258 C264.148 535.258 265.344 536.395 265.539 538.234 L259.191 538.234 Z M275.561 546.258 C277.245 546.258 278.663 545.523 279.467 544.035 L279.491 544.035 L279.491 546 L282.518 546 L282.518 527.812 L279.444 527.812 L279.444 534.941 L279.42 534.941 C278.588 533.523 277.209 532.852 275.538 532.852 C272.229 532.852 269.983 535.574 269.983 539.543 C269.983 543.559 272.194 546.258 275.561 546.258 Z M276.28 543.68 C274.377 543.68 273.096 542.215 273.096 539.543 C273.096 536.883 274.377 535.402 276.28 535.402 C278.295 535.402 279.616 537.039 279.616 539.543 C279.616 542.059 278.295 543.68 276.28 543.68 Z"
         id="path47" />
      <path
         d="M138.562 567.605 L144.227 567.605 L144.227 583 L147.461 583 L147.461 567.605 L153.102 567.605 L153.102 564.812 L138.562 564.812 L138.562 567.605 Z M155.041 583 L158.119 583 L158.119 575.699 C158.119 573.688 159.252 572.672 160.717 572.672 C161.326 572.672 161.939 572.734 162.17 572.77 L162.17 570.035 C161.928 570.012 161.584 569.988 161.17 569.988 C159.51 569.988 158.521 570.77 158.045 572.246 L158.006 572.246 L158.006 570.109 L155.041 570.109 L155.041 583 Z M167.87 583.207 C169.971 583.207 171.057 582.328 171.667 581.18 L171.717 581.18 L171.717 583 L174.745 583 L174.745 574.211 C174.745 571.523 172.752 569.852 169.397 569.852 C166.026 569.852 163.928 571.551 163.78 574.113 L166.749 574.113 C166.834 573.027 167.834 572.246 169.334 572.246 C170.811 572.246 171.69 573.027 171.69 574.125 L171.69 574.223 C171.69 575.102 170.874 575.137 168.483 575.406 C165.819 575.688 163.417 576.406 163.417 579.336 C163.417 581.914 165.307 583.207 167.87 583.207 Z M168.627 580.926 C167.284 580.926 166.417 580.328 166.417 579.312 C166.417 578.141 167.542 577.664 168.858 577.469 C170.127 577.273 171.327 577.078 171.706 576.836 L171.706 578.227 C171.706 579.727 170.643 580.926 168.627 580.926 Z M177.465 583 L180.543 583 L180.543 570.109 L177.465 570.109 L177.465 583 Z M179.004 568.191 C180.055 568.191 180.848 567.438 180.848 566.434 C180.848 565.445 180.055 564.688 179.004 564.688 C177.954 564.688 177.161 565.445 177.161 566.434 C177.161 567.438 177.954 568.191 179.004 568.191 Z M186.354 564.812 L183.276 564.812 L183.276 583 L186.354 583 L186.354 564.812 Z M194.887 583 L198.109 583 L198.109 576.383 L201.77 576.383 C201.805 576.383 201.832 576.383 201.855 576.383 L205.273 583 L208.824 583 L205.027 575.797 C207.191 574.918 208.484 573.102 208.484 570.621 C208.484 567.059 205.98 564.812 201.977 564.812 L194.887 564.812 L194.887 583 Z M198.109 573.723 L198.109 567.547 L201.793 567.547 C203.969 567.547 205.309 568.73 205.309 570.621 C205.309 572.527 203.969 573.723 201.82 573.723 L198.109 573.723 Z M216.527 583.293 C219.542 583.293 221.937 581.547 222.425 579.02 L219.542 579.02 C219.191 580.117 218.152 580.863 216.601 580.863 C214.527 580.863 213.332 579.461 213.257 577.359 L222.582 577.359 L222.582 576.52 C222.582 572.562 220.117 569.816 216.406 569.816 C212.792 569.816 210.242 572.648 210.242 576.566 C210.242 580.473 212.66 583.293 216.527 583.293 Z M213.281 575.234 C213.488 573.395 214.671 572.258 216.457 572.258 C218.238 572.258 219.433 573.395 219.628 575.234 L213.281 575.234 Z M230.369 583.293 C233.631 583.293 235.998 581.191 236.217 578.375 L233.178 578.375 C232.885 579.801 232.018 580.73 230.408 580.73 C228.381 580.73 227.186 579.105 227.186 576.566 C227.186 574.016 228.393 572.379 230.408 572.379 C232.006 572.379 232.971 573.344 233.201 574.723 L236.217 574.723 C235.951 571.855 233.607 569.816 230.369 569.816 C226.6 569.816 224.072 572.586 224.072 576.566 C224.072 580.547 226.6 583.293 230.369 583.293 Z M244.042 583.293 C247.839 583.293 250.402 580.57 250.402 576.566 C250.402 572.562 247.839 569.816 244.042 569.816 C240.246 569.816 237.683 572.562 237.683 576.566 C237.683 580.57 240.246 583.293 244.042 583.293 Z M244.042 580.719 C242.054 580.719 240.796 579.141 240.796 576.566 C240.796 573.98 242.066 572.391 244.042 572.391 C246.007 572.391 247.277 573.992 247.277 576.566 C247.277 579.129 246.019 580.719 244.042 580.719 Z M252.526 583 L255.604 583 L255.604 575.309 C255.604 573.465 256.788 572.465 258.179 572.465 C259.546 572.465 260.522 573.379 260.522 574.785 L260.522 583 L263.515 583 L263.515 575.09 C263.515 573.551 264.476 572.465 266.038 572.465 C267.358 572.465 268.433 573.223 268.433 574.93 L268.433 583 L271.522 583 L271.522 574.492 C271.522 571.465 269.64 569.852 267.198 569.852 C265.319 569.852 263.78 570.805 263.097 572.293 C262.562 570.816 261.132 569.852 259.386 569.852 C257.765 569.852 256.288 570.684 255.507 572.344 L255.507 570.109 L252.526 570.109 L252.526 583 Z M274.243 583 L277.321 583 L277.321 575.309 C277.321 573.465 278.504 572.465 279.895 572.465 C281.262 572.465 282.239 573.379 282.239 574.785 L282.239 583 L285.231 583 L285.231 575.09 C285.231 573.551 286.192 572.465 287.754 572.465 C289.075 572.465 290.149 573.223 290.149 574.93 L290.149 583 L293.239 583 L293.239 574.492 C293.239 571.465 291.356 569.852 288.915 569.852 C287.036 569.852 285.497 570.805 284.813 572.293 C284.278 570.816 282.848 569.852 281.102 569.852 C279.481 569.852 278.004 570.684 277.223 572.344 L277.223 570.109 L274.243 570.109 L274.243 583 Z M301.646 583.293 C304.662 583.293 307.057 581.547 307.545 579.02 L304.662 579.02 C304.311 580.117 303.271 580.863 301.721 580.863 C299.646 580.863 298.451 579.461 298.377 577.359 L307.701 577.359 L307.701 576.52 C307.701 572.562 305.236 569.816 301.525 569.816 C297.912 569.816 295.361 572.648 295.361 576.566 C295.361 580.473 297.779 583.293 301.646 583.293 Z M298.4 575.234 C298.607 573.395 299.791 572.258 301.576 572.258 C303.357 572.258 304.553 573.395 304.748 575.234 L298.4 575.234 Z M312.868 575.711 C312.868 573.516 314.075 572.551 315.684 572.551 C317.333 572.551 318.286 573.539 318.286 575.43 L318.286 583 L321.375 583 L321.375 574.941 C321.375 571.637 319.469 569.852 316.774 569.852 C315 569.852 313.696 570.633 312.817 572.086 L312.817 570.109 L309.79 570.109 L309.79 583 L312.868 583 L312.868 575.711 Z M329.089 583.258 C330.772 583.258 332.19 582.523 332.995 581.035 L333.019 581.035 L333.019 583 L336.046 583 L336.046 564.812 L332.972 564.812 L332.972 571.941 L332.948 571.941 C332.116 570.523 330.737 569.852 329.065 569.852 C325.757 569.852 323.511 572.574 323.511 576.543 C323.511 580.559 325.722 583.258 329.089 583.258 Z M329.808 580.68 C327.905 580.68 326.624 579.215 326.624 576.543 C326.624 573.883 327.905 572.402 329.808 572.402 C331.823 572.402 333.144 574.039 333.144 576.543 C333.144 579.059 331.823 580.68 329.808 580.68 Z M342.711 583.207 C344.812 583.207 345.898 582.328 346.508 581.18 L346.559 581.18 L346.559 583 L349.586 583 L349.586 574.211 C349.586 571.523 347.594 569.852 344.238 569.852 C340.867 569.852 338.77 571.551 338.621 574.113 L341.59 574.113 C341.676 573.027 342.676 572.246 344.176 572.246 C345.652 572.246 346.531 573.027 346.531 574.125 L346.531 574.223 C346.531 575.102 345.715 575.137 343.324 575.406 C340.66 575.688 338.258 576.406 338.258 579.336 C338.258 581.914 340.148 583.207 342.711 583.207 Z M343.469 580.926 C342.125 580.926 341.258 580.328 341.258 579.312 C341.258 578.141 342.383 577.664 343.699 577.469 C344.969 577.273 346.168 577.078 346.547 576.836 L346.547 578.227 C346.547 579.727 345.484 580.926 343.469 580.926 Z M359.107 570.109 L356.482 570.109 L356.482 566.594 L353.393 566.594 L353.393 570.109 L351.146 570.109 L351.146 572.586 L353.393 572.586 L353.393 579.754 C353.393 581.961 354.627 583 357.252 583 L359.107 583 L359.107 580.523 L357.787 580.523 C356.787 580.523 356.482 580.215 356.482 579.301 L356.482 572.586 L359.107 572.586 L359.107 570.109 Z M361.047 583 L364.125 583 L364.125 570.109 L361.047 570.109 L361.047 583 Z M362.586 568.191 C363.637 568.191 364.43 567.438 364.43 566.434 C364.43 565.445 363.637 564.688 362.586 564.688 C361.535 564.688 360.742 565.445 360.742 566.434 C360.742 567.438 361.535 568.191 362.586 568.191 Z M372.619 583.293 C376.416 583.293 378.979 580.57 378.979 576.566 C378.979 572.562 376.416 569.816 372.619 569.816 C368.822 569.816 366.26 572.562 366.26 576.566 C366.26 580.57 368.822 583.293 372.619 583.293 Z M372.619 580.719 C370.631 580.719 369.373 579.141 369.373 576.566 C369.373 573.98 370.643 572.391 372.619 572.391 C374.584 572.391 375.854 573.992 375.854 576.566 C375.854 579.129 374.596 580.719 372.619 580.719 Z M384.181 575.711 C384.181 573.516 385.388 572.551 386.998 572.551 C388.646 572.551 389.599 573.539 389.599 575.43 L389.599 583 L392.689 583 L392.689 574.941 C392.689 571.637 390.783 569.852 388.087 569.852 C386.314 569.852 385.009 570.633 384.13 572.086 L384.13 570.109 L381.103 570.109 L381.103 583 L384.181 583 L384.181 575.711 Z M400.477 583.305 C403.66 583.305 405.945 581.719 405.945 579.203 C405.945 577.312 404.762 576.188 402.211 575.652 L399.891 575.176 C398.816 574.941 398.18 574.469 398.18 573.699 C398.18 572.82 399.012 572.137 400.367 572.137 C401.77 572.137 402.711 572.977 402.734 574.125 L405.629 574.125 C405.555 571.477 403.418 569.828 400.293 569.828 C397.145 569.828 395.105 571.426 395.105 573.797 C395.105 575.75 396.398 577.008 398.863 577.52 L401.062 577.969 C402.148 578.203 402.82 578.652 402.82 579.434 C402.82 580.352 401.918 580.996 400.426 580.996 C398.891 580.996 397.984 580.277 397.852 579.02 L394.812 579.02 C395.008 581.793 397.34 583.305 400.477 583.305 Z"
         id="path48" />
      <path
         d="M599.516 546 L602.738 546 L602.738 539.383 L606.398 539.383 C606.434 539.383 606.461 539.383 606.484 539.383 L609.902 546 L613.453 546 L609.656 538.797 C611.82 537.918 613.113 536.102 613.113 533.621 C613.113 530.059 610.609 527.812 606.605 527.812 L599.516 527.812 L599.516 546 Z M602.738 536.723 L602.738 530.547 L606.422 530.547 C608.598 530.547 609.938 531.73 609.938 533.621 C609.938 535.527 608.598 536.723 606.449 536.723 L602.738 536.723 Z M621.156 546.293 C624.171 546.293 626.566 544.547 627.054 542.02 L624.171 542.02 C623.82 543.117 622.781 543.863 621.23 543.863 C619.156 543.863 617.96 542.461 617.886 540.359 L627.21 540.359 L627.21 539.52 C627.21 535.562 624.746 532.816 621.035 532.816 C617.421 532.816 614.871 535.648 614.871 539.566 C614.871 543.473 617.289 546.293 621.156 546.293 Z M617.91 538.234 C618.117 536.395 619.3 535.258 621.085 535.258 C622.867 535.258 624.062 536.395 624.257 538.234 L617.91 538.234 Z M633.229 546.207 C635.33 546.207 636.416 545.328 637.025 544.18 L637.076 544.18 L637.076 546 L640.104 546 L640.104 537.211 C640.104 534.523 638.111 532.852 634.756 532.852 C631.385 532.852 629.287 534.551 629.139 537.113 L632.107 537.113 C632.193 536.027 633.193 535.246 634.693 535.246 C636.17 535.246 637.049 536.027 637.049 537.125 L637.049 537.223 C637.049 538.102 636.232 538.137 633.842 538.406 C631.178 538.688 628.775 539.406 628.775 542.336 C628.775 544.914 630.666 546.207 633.229 546.207 Z M633.986 543.926 C632.643 543.926 631.775 543.328 631.775 542.312 C631.775 541.141 632.9 540.664 634.217 540.469 C635.486 540.273 636.686 540.078 637.064 539.836 L637.064 541.227 C637.064 542.727 636.002 543.926 633.986 543.926 Z M645.902 527.812 L642.824 527.812 L642.824 546 L645.902 546 L645.902 527.812 Z M656.838 537.453 L648.686 537.453 L648.686 540.043 L656.838 540.043 L656.838 537.453 Z M666.422 533.109 L663.797 533.109 L663.797 529.594 L660.707 529.594 L660.707 533.109 L658.461 533.109 L658.461 535.586 L660.707 535.586 L660.707 542.754 C660.707 544.961 661.941 546 664.566 546 L666.422 546 L666.422 543.523 L665.102 543.523 C664.102 543.523 663.797 543.215 663.797 542.301 L663.797 535.586 L666.422 535.586 L666.422 533.109 Z M668.361 546 L671.439 546 L671.439 533.109 L668.361 533.109 L668.361 546 Z M669.9 531.191 C670.951 531.191 671.744 530.438 671.744 529.434 C671.744 528.445 670.951 527.688 669.9 527.688 C668.85 527.688 668.057 528.445 668.057 529.434 C668.057 530.438 668.85 531.191 669.9 531.191 Z M674.172 546 L677.25 546 L677.25 538.309 C677.25 536.465 678.434 535.465 679.824 535.465 C681.191 535.465 682.168 536.379 682.168 537.785 L682.168 546 L685.16 546 L685.16 538.09 C685.16 536.551 686.121 535.465 687.684 535.465 C689.004 535.465 690.078 536.223 690.078 537.93 L690.078 546 L693.168 546 L693.168 537.492 C693.168 534.465 691.285 532.852 688.844 532.852 C686.965 532.852 685.426 533.805 684.742 535.293 C684.207 533.816 682.777 532.852 681.031 532.852 C679.41 532.852 677.934 533.684 677.152 535.344 L677.152 533.109 L674.172 533.109 L674.172 546 Z M701.576 546.293 C704.591 546.293 706.986 544.547 707.474 542.02 L704.591 542.02 C704.24 543.117 703.201 543.863 701.65 543.863 C699.576 543.863 698.38 542.461 698.306 540.359 L707.63 540.359 L707.63 539.52 C707.63 535.562 705.166 532.816 701.455 532.816 C697.841 532.816 695.291 535.648 695.291 539.566 C695.291 543.473 697.708 546.293 701.576 546.293 Z M698.33 538.234 C698.537 536.395 699.72 535.258 701.505 535.258 C703.287 535.258 704.482 536.395 704.677 538.234 L698.33 538.234 Z"
         id="path49" />
      <path
         d="M605.652 583 C611.219 583 614.555 579.508 614.555 573.883 C614.555 568.289 611.195 564.812 605.789 564.812 L599.516 564.812 L599.516 583 L605.652 583 Z M602.738 580.242 L602.738 567.57 L605.582 567.57 C609.414 567.57 611.293 569.879 611.293 573.883 C611.293 577.922 609.438 580.242 605.484 580.242 L602.738 580.242 Z M620.729 583.207 C622.83 583.207 623.916 582.328 624.525 581.18 L624.576 581.18 L624.576 583 L627.604 583 L627.604 574.211 C627.604 571.523 625.611 569.852 622.256 569.852 C618.885 569.852 616.787 571.551 616.639 574.113 L619.607 574.113 C619.693 573.027 620.693 572.246 622.193 572.246 C623.67 572.246 624.549 573.027 624.549 574.125 L624.549 574.223 C624.549 575.102 623.732 575.137 621.342 575.406 C618.678 575.688 616.275 576.406 616.275 579.336 C616.275 581.914 618.166 583.207 620.729 583.207 Z M621.486 580.926 C620.143 580.926 619.275 580.328 619.275 579.312 C619.275 578.141 620.4 577.664 621.717 577.469 C622.986 577.273 624.186 577.078 624.564 576.836 L624.564 578.227 C624.564 579.727 623.502 580.926 621.486 580.926 Z M633.402 575.711 C633.402 573.516 634.609 572.551 636.219 572.551 C637.867 572.551 638.82 573.539 638.82 575.43 L638.82 583 L641.91 583 L641.91 574.941 C641.91 571.637 640.004 569.852 637.309 569.852 C635.535 569.852 634.23 570.633 633.352 572.086 L633.352 570.109 L630.324 570.109 L630.324 583 L633.402 583 L633.402 575.711 Z M650.491 588.273 C653.983 588.273 656.581 586.664 656.581 582.672 L656.581 570.109 L653.542 570.109 L653.542 572.027 L653.53 572.027 C652.674 570.547 651.272 569.852 649.6 569.852 C646.292 569.852 644.045 572.574 644.045 576.492 C644.045 580.375 646.256 583.086 649.624 583.086 C651.319 583.086 652.686 582.402 653.518 580.887 L653.53 580.887 L653.53 582.852 C653.53 584.832 652.42 585.895 650.491 585.895 C649.049 585.895 647.987 585.309 647.694 584.195 L644.678 584.195 C645.022 586.699 647.084 588.273 650.491 588.273 Z M650.342 580.547 C648.44 580.547 647.159 579.094 647.159 576.457 C647.159 573.832 648.44 572.367 650.342 572.367 C652.358 572.367 653.678 573.98 653.678 576.457 C653.678 578.934 652.358 580.547 650.342 580.547 Z M665.003 583.293 C668.019 583.293 670.414 581.547 670.902 579.02 L668.019 579.02 C667.667 580.117 666.628 580.863 665.078 580.863 C663.003 580.863 661.808 579.461 661.734 577.359 L671.058 577.359 L671.058 576.52 C671.058 572.562 668.593 569.816 664.882 569.816 C661.269 569.816 658.718 572.648 658.718 576.566 C658.718 580.473 661.136 583.293 665.003 583.293 Z M661.757 575.234 C661.964 573.395 663.148 572.258 664.933 572.258 C666.714 572.258 667.91 573.395 668.105 575.234 L661.757 575.234 Z M673.146 583 L676.225 583 L676.225 575.699 C676.225 573.688 677.357 572.672 678.822 572.672 C679.432 572.672 680.045 572.734 680.275 572.77 L680.275 570.035 C680.033 570.012 679.689 569.988 679.275 569.988 C677.615 569.988 676.627 570.77 676.15 572.246 L676.111 572.246 L676.111 570.109 L673.146 570.109 L673.146 583 Z M686.49 583 L689.955 583 L691.443 578.652 L698.502 578.652 L699.955 583 L703.506 583 L697.037 564.812 L692.982 564.812 L686.49 583 Z M692.35 576.004 L693.229 573.441 C693.775 571.77 694.326 570.023 695.01 567.73 C695.693 570.023 696.229 571.77 696.768 573.441 L697.623 576.004 L692.35 576.004 Z M708.109 564.812 L705.031 564.812 L705.031 583 L708.109 583 L708.109 564.812 Z M716.529 583.293 C719.545 583.293 721.939 581.547 722.428 579.02 L719.545 579.02 C719.193 580.117 718.154 580.863 716.604 580.863 C714.529 580.863 713.334 579.461 713.26 577.359 L722.584 577.359 L722.584 576.52 C722.584 572.562 720.119 569.816 716.408 569.816 C712.795 569.816 710.244 572.648 710.244 576.566 C710.244 580.473 712.662 583.293 716.529 583.293 Z M713.283 575.234 C713.49 573.395 714.674 572.258 716.459 572.258 C718.24 572.258 719.436 573.395 719.631 575.234 L713.283 575.234 Z M724.672 583 L727.75 583 L727.75 575.699 C727.75 573.688 728.883 572.672 730.348 572.672 C730.958 572.672 731.571 572.734 731.801 572.77 L731.801 570.035 C731.559 570.012 731.215 569.988 730.801 569.988 C729.141 569.988 728.153 570.77 727.676 572.246 L727.637 572.246 L727.637 570.109 L724.672 570.109 L724.672 583 Z M740.372 570.109 L737.747 570.109 L737.747 566.594 L734.657 566.594 L734.657 570.109 L732.411 570.109 L732.411 572.586 L734.657 572.586 L734.657 579.754 C734.657 581.961 735.892 583 738.517 583 L740.372 583 L740.372 580.523 L739.052 580.523 C738.052 580.523 737.747 580.215 737.747 579.301 L737.747 572.586 L740.372 572.586 L740.372 570.109 Z M747.366 583.305 C750.55 583.305 752.835 581.719 752.835 579.203 C752.835 577.312 751.651 576.188 749.101 575.652 L746.78 575.176 C745.706 574.941 745.069 574.469 745.069 573.699 C745.069 572.82 745.901 572.137 747.257 572.137 C748.659 572.137 749.601 572.977 749.624 574.125 L752.519 574.125 C752.444 571.477 750.308 569.828 747.183 569.828 C744.034 569.828 741.995 571.426 741.995 573.797 C741.995 575.75 743.288 577.008 745.753 577.52 L747.952 577.969 C749.038 578.203 749.71 578.652 749.71 579.434 C749.71 580.352 748.808 580.996 747.315 580.996 C745.78 580.996 744.874 580.277 744.741 579.02 L741.702 579.02 C741.897 581.793 744.229 583.305 747.366 583.305 Z"
         id="path50" />
      <path
         d="M987.16 546 L990.625 546 L992.113 541.652 L999.172 541.652 L1000.625 546 L1004.176 546 L997.707 527.812 L993.652 527.812 L987.16 546 Z M993.02 539.004 L993.898 536.441 C994.445 534.77 994.996 533.023 995.68 530.73 C996.363 533.023 996.898 534.77 997.438 536.441 L998.293 539.004 L993.02 539.004 Z M1010.291 546.258 C1012.072 546.258 1013.381 545.477 1014.26 544.023 L1014.26 546 L1017.287 546 L1017.287 533.109 L1014.197 533.109 L1014.197 540.398 C1014.197 542.594 1013.002 543.559 1011.377 543.559 C1009.729 543.559 1008.779 542.57 1008.779 540.676 L1008.779 533.109 L1005.701 533.109 L1005.701 541.164 C1005.701 544.473 1007.592 546.258 1010.291 546.258 Z M1026.821 533.109 L1024.196 533.109 L1024.196 529.594 L1021.106 529.594 L1021.106 533.109 L1018.86 533.109 L1018.86 535.586 L1021.106 535.586 L1021.106 542.754 C1021.106 544.961 1022.34 546 1024.965 546 L1026.821 546 L1026.821 543.523 L1025.5 543.523 C1024.5 543.523 1024.196 543.215 1024.196 542.301 L1024.196 535.586 L1026.821 535.586 L1026.821 533.109 Z M1034.522 546.293 C1038.319 546.293 1040.881 543.57 1040.881 539.566 C1040.881 535.562 1038.319 532.816 1034.522 532.816 C1030.725 532.816 1028.163 535.562 1028.163 539.566 C1028.163 543.57 1030.725 546.293 1034.522 546.293 Z M1034.522 543.719 C1032.534 543.719 1031.276 542.141 1031.276 539.566 C1031.276 536.98 1032.545 535.391 1034.522 535.391 C1036.487 535.391 1037.756 536.992 1037.756 539.566 C1037.756 542.129 1036.499 543.719 1034.522 543.719 Z M1043.006 546 L1046.084 546 L1046.084 538.309 C1046.084 536.465 1047.268 535.465 1048.658 535.465 C1050.025 535.465 1051.002 536.379 1051.002 537.785 L1051.002 546 L1053.994 546 L1053.994 538.09 C1053.994 536.551 1054.955 535.465 1056.518 535.465 C1057.838 535.465 1058.912 536.223 1058.912 537.93 L1058.912 546 L1062.002 546 L1062.002 537.492 C1062.002 534.465 1060.119 532.852 1057.678 532.852 C1055.799 532.852 1054.26 533.805 1053.576 535.293 C1053.041 533.816 1051.611 532.852 1049.865 532.852 C1048.244 532.852 1046.768 533.684 1045.986 535.344 L1045.986 533.109 L1043.006 533.109 L1043.006 546 Z M1068.652 546.207 C1070.753 546.207 1071.839 545.328 1072.449 544.18 L1072.5 544.18 L1072.5 546 L1075.527 546 L1075.527 537.211 C1075.527 534.523 1073.535 532.852 1070.179 532.852 C1066.808 532.852 1064.71 534.551 1064.562 537.113 L1067.531 537.113 C1067.617 536.027 1068.617 535.246 1070.117 535.246 C1071.593 535.246 1072.472 536.027 1072.472 537.125 L1072.472 537.223 C1072.472 538.102 1071.656 538.137 1069.265 538.406 C1066.601 538.688 1064.199 539.406 1064.199 542.336 C1064.199 544.914 1066.089 546.207 1068.652 546.207 Z M1069.41 543.926 C1068.066 543.926 1067.199 543.328 1067.199 542.312 C1067.199 541.141 1068.324 540.664 1069.64 540.469 C1070.91 540.273 1072.109 540.078 1072.488 539.836 L1072.488 541.227 C1072.488 542.727 1071.425 543.926 1069.41 543.926 Z M1085.048 533.109 L1082.423 533.109 L1082.423 529.594 L1079.333 529.594 L1079.333 533.109 L1077.087 533.109 L1077.087 535.586 L1079.333 535.586 L1079.333 542.754 C1079.333 544.961 1080.568 546 1083.193 546 L1085.048 546 L1085.048 543.523 L1083.728 543.523 C1082.728 543.523 1082.423 543.215 1082.423 542.301 L1082.423 535.586 L1085.048 535.586 L1085.048 533.109 Z M1086.988 546 L1090.066 546 L1090.066 533.109 L1086.988 533.109 L1086.988 546 Z M1088.527 531.191 C1089.578 531.191 1090.371 530.438 1090.371 529.434 C1090.371 528.445 1089.578 527.688 1088.527 527.688 C1087.476 527.688 1086.683 528.445 1086.683 529.434 C1086.683 530.438 1087.476 531.191 1088.527 531.191 Z M1098.498 546.293 C1101.759 546.293 1104.126 544.191 1104.345 541.375 L1101.306 541.375 C1101.013 542.801 1100.146 543.73 1098.537 543.73 C1096.509 543.73 1095.314 542.105 1095.314 539.566 C1095.314 537.016 1096.521 535.379 1098.537 535.379 C1100.134 535.379 1101.099 536.344 1101.33 537.723 L1104.345 537.723 C1104.08 534.855 1101.736 532.816 1098.498 532.816 C1094.728 532.816 1092.201 535.586 1092.201 539.566 C1092.201 543.547 1094.728 546.293 1098.498 546.293 Z"
         id="path51" />
      <path
         d="M994.652 583 C1000.219 583 1003.555 579.508 1003.555 573.883 C1003.555 568.289 1000.195 564.812 994.789 564.812 L988.516 564.812 L988.516 583 L994.652 583 Z M991.738 580.242 L991.738 567.57 L994.582 567.57 C998.414 567.57 1000.293 569.879 1000.293 573.883 C1000.293 577.922 998.438 580.242 994.484 580.242 L991.738 580.242 Z M1005.799 583 L1008.877 583 L1008.877 570.109 L1005.799 570.109 L1005.799 583 Z M1007.338 568.191 C1008.389 568.191 1009.182 567.438 1009.182 566.434 C1009.182 565.445 1008.389 564.688 1007.338 564.688 C1006.287 564.688 1005.494 565.445 1005.494 566.434 C1005.494 567.438 1006.287 568.191 1007.338 568.191 Z M1016.664 583.305 C1019.848 583.305 1022.133 581.719 1022.133 579.203 C1022.133 577.312 1020.949 576.188 1018.398 575.652 L1016.078 575.176 C1015.004 574.941 1014.367 574.469 1014.367 573.699 C1014.367 572.82 1015.199 572.137 1016.555 572.137 C1017.957 572.137 1018.898 572.977 1018.922 574.125 L1021.816 574.125 C1021.742 571.477 1019.605 569.828 1016.48 569.828 C1013.332 569.828 1011.293 571.426 1011.293 573.797 C1011.293 575.75 1012.586 577.008 1015.051 577.52 L1017.25 577.969 C1018.336 578.203 1019.008 578.652 1019.008 579.434 C1019.008 580.352 1018.105 580.996 1016.613 580.996 C1015.078 580.996 1014.172 580.277 1014.039 579.02 L1011 579.02 C1011.195 581.793 1013.527 583.305 1016.664 583.305 Z M1031.032 570.109 L1028.407 570.109 L1028.407 566.594 L1025.317 566.594 L1025.317 570.109 L1023.071 570.109 L1023.071 572.586 L1025.317 572.586 L1025.317 579.754 C1025.317 581.961 1026.552 583 1029.177 583 L1031.032 583 L1031.032 580.523 L1029.712 580.523 C1028.712 580.523 1028.407 580.215 1028.407 579.301 L1028.407 572.586 L1031.032 572.586 L1031.032 570.109 Z M1032.972 583 L1036.05 583 L1036.05 575.699 C1036.05 573.688 1037.183 572.672 1038.647 572.672 C1039.257 572.672 1039.87 572.734 1040.101 572.77 L1040.101 570.035 C1039.858 570.012 1039.515 569.988 1039.101 569.988 C1037.44 569.988 1036.452 570.77 1035.976 572.246 L1035.937 572.246 L1035.937 570.109 L1032.972 570.109 L1032.972 583 Z M1047.558 583.293 C1050.574 583.293 1052.968 581.547 1053.457 579.02 L1050.574 579.02 C1050.222 580.117 1049.183 580.863 1047.632 580.863 C1045.558 580.863 1044.363 579.461 1044.289 577.359 L1053.613 577.359 L1053.613 576.52 C1053.613 572.562 1051.148 569.816 1047.437 569.816 C1043.824 569.816 1041.273 572.648 1041.273 576.566 C1041.273 580.473 1043.691 583.293 1047.558 583.293 Z M1044.312 575.234 C1044.519 573.395 1045.703 572.258 1047.488 572.258 C1049.269 572.258 1050.464 573.395 1050.66 575.234 L1044.312 575.234 Z M1060.756 583.305 C1063.939 583.305 1066.225 581.719 1066.225 579.203 C1066.225 577.312 1065.041 576.188 1062.49 575.652 L1060.17 575.176 C1059.096 574.941 1058.459 574.469 1058.459 573.699 C1058.459 572.82 1059.291 572.137 1060.646 572.137 C1062.049 572.137 1062.99 572.977 1063.014 574.125 L1065.908 574.125 C1065.834 571.477 1063.697 569.828 1060.572 569.828 C1057.424 569.828 1055.385 571.426 1055.385 573.797 C1055.385 575.75 1056.678 577.008 1059.143 577.52 L1061.342 577.969 C1062.428 578.203 1063.1 578.652 1063.1 579.434 C1063.1 580.352 1062.197 580.996 1060.705 580.996 C1059.17 580.996 1058.264 580.277 1058.131 579.02 L1055.092 579.02 C1055.287 581.793 1057.619 583.305 1060.756 583.305 Z M1073.378 583.305 C1076.562 583.305 1078.847 581.719 1078.847 579.203 C1078.847 577.312 1077.663 576.188 1075.112 575.652 L1072.792 575.176 C1071.718 574.941 1071.081 574.469 1071.081 573.699 C1071.081 572.82 1071.913 572.137 1073.269 572.137 C1074.671 572.137 1075.612 572.977 1075.636 574.125 L1078.53 574.125 C1078.456 571.477 1076.319 569.828 1073.194 569.828 C1070.046 569.828 1068.007 571.426 1068.007 573.797 C1068.007 575.75 1069.3 577.008 1071.765 577.52 L1073.964 577.969 C1075.05 578.203 1075.722 578.652 1075.722 579.434 C1075.722 580.352 1074.819 580.996 1073.327 580.996 C1071.792 580.996 1070.886 580.277 1070.753 579.02 L1067.714 579.02 C1067.909 581.793 1070.241 583.305 1073.378 583.305 Z M1092.882 583 C1098.449 583 1101.785 579.508 1101.785 573.883 C1101.785 568.289 1098.425 564.812 1093.019 564.812 L1086.746 564.812 L1086.746 583 L1092.882 583 Z M1089.968 580.242 L1089.968 567.57 L1092.812 567.57 C1096.644 567.57 1098.523 569.879 1098.523 573.883 C1098.523 577.922 1096.667 580.242 1092.714 580.242 L1089.968 580.242 Z M1109.716 583.293 C1112.732 583.293 1115.126 581.547 1115.615 579.02 L1112.732 579.02 C1112.38 580.117 1111.341 580.863 1109.791 580.863 C1107.716 580.863 1106.521 579.461 1106.447 577.359 L1115.771 577.359 L1115.771 576.52 C1115.771 572.562 1113.306 569.816 1109.595 569.816 C1105.982 569.816 1103.431 572.648 1103.431 576.566 C1103.431 580.473 1105.849 583.293 1109.716 583.293 Z M1106.47 575.234 C1106.677 573.395 1107.861 572.258 1109.646 572.258 C1111.427 572.258 1112.623 573.395 1112.818 575.234 L1106.47 575.234 Z M1124.66 570.109 L1122.035 570.109 L1122.035 566.594 L1118.945 566.594 L1118.945 570.109 L1116.699 570.109 L1116.699 572.586 L1118.945 572.586 L1118.945 579.754 C1118.945 581.961 1120.18 583 1122.805 583 L1124.66 583 L1124.66 580.523 L1123.34 580.523 C1122.34 580.523 1122.035 580.215 1122.035 579.301 L1122.035 572.586 L1124.66 572.586 L1124.66 570.109 Z M1132.287 583.293 C1135.303 583.293 1137.697 581.547 1138.186 579.02 L1135.303 579.02 C1134.951 580.117 1133.912 580.863 1132.361 580.863 C1130.287 580.863 1129.092 579.461 1129.018 577.359 L1138.342 577.359 L1138.342 576.52 C1138.342 572.562 1135.877 569.816 1132.166 569.816 C1128.553 569.816 1126.002 572.648 1126.002 576.566 C1126.002 580.473 1128.42 583.293 1132.287 583.293 Z M1129.041 575.234 C1129.248 573.395 1130.432 572.258 1132.217 572.258 C1133.998 572.258 1135.193 573.395 1135.389 575.234 L1129.041 575.234 Z M1146.129 583.293 C1149.391 583.293 1151.758 581.191 1151.977 578.375 L1148.938 578.375 C1148.645 579.801 1147.778 580.73 1146.168 580.73 C1144.141 580.73 1142.946 579.105 1142.946 576.566 C1142.946 574.016 1144.153 572.379 1146.168 572.379 C1147.766 572.379 1148.731 573.344 1148.961 574.723 L1151.977 574.723 C1151.711 571.855 1149.368 569.816 1146.129 569.816 C1142.36 569.816 1139.833 572.586 1139.833 576.566 C1139.833 580.547 1142.36 583.293 1146.129 583.293 Z M1160.842 570.109 L1158.217 570.109 L1158.217 566.594 L1155.127 566.594 L1155.127 570.109 L1152.881 570.109 L1152.881 572.586 L1155.127 572.586 L1155.127 579.754 C1155.127 581.961 1156.361 583 1158.986 583 L1160.842 583 L1160.842 580.523 L1159.521 580.523 C1158.521 580.523 1158.217 580.215 1158.217 579.301 L1158.217 572.586 L1160.842 572.586 L1160.842 570.109 Z M1162.781 583 L1165.859 583 L1165.859 570.109 L1162.781 570.109 L1162.781 583 Z M1164.32 568.191 C1165.371 568.191 1166.164 567.438 1166.164 566.434 C1166.164 565.445 1165.371 564.688 1164.32 564.688 C1163.27 564.688 1162.477 565.445 1162.477 566.434 C1162.477 567.438 1163.27 568.191 1164.32 568.191 Z M1174.354 583.293 C1178.15 583.293 1180.713 580.57 1180.713 576.566 C1180.713 572.562 1178.15 569.816 1174.354 569.816 C1170.557 569.816 1167.994 572.562 1167.994 576.566 C1167.994 580.57 1170.557 583.293 1174.354 583.293 Z M1174.354 580.719 C1172.365 580.719 1171.107 579.141 1171.107 576.566 C1171.107 573.98 1172.377 572.391 1174.354 572.391 C1176.318 572.391 1177.588 573.992 1177.588 576.566 C1177.588 579.129 1176.33 580.719 1174.354 580.719 Z M1185.916 575.711 C1185.916 573.516 1187.123 572.551 1188.732 572.551 C1190.38 572.551 1191.333 573.539 1191.333 575.43 L1191.333 583 L1194.423 583 L1194.423 574.941 C1194.423 571.637 1192.517 569.852 1189.822 569.852 C1188.048 569.852 1186.744 570.633 1185.865 572.086 L1185.865 570.109 L1182.837 570.109 L1182.837 583 L1185.916 583 L1185.916 575.711 Z"
         id="path52" />
      <path
         d="M1395.516 546 L1402.863 546 C1407.074 546 1409.285 543.949 1409.285 540.887 C1409.285 538.297 1407.598 536.797 1405.426 536.539 L1405.426 536.516 C1407.379 535.977 1408.586 534.637 1408.586 532.535 C1408.586 529.691 1406.379 527.812 1402.547 527.812 L1395.516 527.812 L1395.516 546 Z M1398.688 543.375 L1398.688 538.039 L1402.594 538.039 C1404.742 538.039 1405.977 539.09 1405.977 540.773 C1405.977 542.449 1404.719 543.375 1402.52 543.375 L1398.688 543.375 Z M1398.688 535.516 L1398.688 530.438 L1402.398 530.438 C1404.242 530.438 1405.363 531.414 1405.363 532.977 C1405.363 534.523 1404.242 535.516 1402.398 535.516 L1398.688 535.516 Z M1411.053 546 L1423.736 546 L1423.736 543.34 L1415.447 543.34 L1415.447 543.312 L1419.646 539.59 C1422.236 537.332 1423.65 535.613 1423.65 533.133 C1423.65 529.754 1421.053 527.52 1417.424 527.52 C1413.533 527.52 1411.041 530.094 1411.041 533.938 L1414.033 533.938 C1414.033 531.609 1415.303 530.18 1417.424 530.18 C1419.393 530.18 1420.623 531.375 1420.623 533.281 C1420.623 535.051 1419.502 536.137 1417.658 537.773 L1411.053 543.547 L1411.053 546 Z M1434.123 546.293 C1438.713 546.293 1442.072 543.156 1442.072 538.723 L1442.072 536.527 L1434.662 536.527 L1434.662 539.078 L1438.885 539.078 C1438.861 541.652 1436.885 543.398 1434.197 543.398 C1430.928 543.398 1428.838 540.848 1428.838 536.918 C1428.838 532.977 1430.916 530.41 1434.174 530.41 C1436.506 530.41 1438.213 531.789 1438.666 533.84 L1441.951 533.84 C1441.424 530.082 1438.154 527.52 1434.088 527.52 C1429.205 527.52 1425.592 531.203 1425.592 536.918 C1425.592 542.484 1429.084 546.293 1434.123 546.293 Z"
         id="path53" />
      <path
         d="M1395.516 583 L1398.688 583 L1398.688 573.723 C1398.688 572.5 1398.625 570.609 1398.59 568.816 C1399.227 570.781 1399.836 572.66 1400.215 573.723 L1403.703 583 L1406.34 583 L1409.809 573.723 C1410.199 572.613 1410.82 570.609 1411.469 568.559 C1411.418 570.426 1411.359 572.441 1411.359 573.723 L1411.359 583 L1414.531 583 L1414.531 564.812 L1409.871 564.812 L1406.391 574.371 C1406.062 575.383 1405.477 577.203 1405.047 578.617 C1404.621 577.203 1404.035 575.383 1403.691 574.371 L1400.152 564.812 L1395.516 564.812 L1395.516 583 Z M1423.175 583.293 C1426.972 583.293 1429.534 580.57 1429.534 576.566 C1429.534 572.562 1426.972 569.816 1423.175 569.816 C1419.378 569.816 1416.815 572.562 1416.815 576.566 C1416.815 580.57 1419.378 583.293 1423.175 583.293 Z M1423.175 580.719 C1421.187 580.719 1419.929 579.141 1419.929 576.566 C1419.929 573.98 1421.198 572.391 1423.175 572.391 C1425.14 572.391 1426.409 573.992 1426.409 576.566 C1426.409 579.129 1425.151 580.719 1423.175 580.719 Z M1434.737 575.711 C1434.737 573.516 1435.944 572.551 1437.553 572.551 C1439.202 572.551 1440.155 573.539 1440.155 575.43 L1440.155 583 L1443.245 583 L1443.245 574.941 C1443.245 571.637 1441.338 569.852 1438.643 569.852 C1436.87 569.852 1435.565 570.633 1434.686 572.086 L1434.686 570.109 L1431.659 570.109 L1431.659 583 L1434.737 583 L1434.737 575.711 Z M1445.978 583 L1449.056 583 L1449.056 570.109 L1445.978 570.109 L1445.978 583 Z M1447.517 568.191 C1448.567 568.191 1449.36 567.438 1449.36 566.434 C1449.36 565.445 1448.567 564.688 1447.517 564.688 C1446.466 564.688 1445.673 565.445 1445.673 566.434 C1445.673 567.438 1446.466 568.191 1447.517 568.191 Z M1458.589 570.109 L1455.964 570.109 L1455.964 566.594 L1452.874 566.594 L1452.874 570.109 L1450.628 570.109 L1450.628 572.586 L1452.874 572.586 L1452.874 579.754 C1452.874 581.961 1454.108 583 1456.733 583 L1458.589 583 L1458.589 580.523 L1457.269 580.523 C1456.269 580.523 1455.964 580.215 1455.964 579.301 L1455.964 572.586 L1458.589 572.586 L1458.589 570.109 Z M1466.29 583.293 C1470.087 583.293 1472.649 580.57 1472.649 576.566 C1472.649 572.562 1470.087 569.816 1466.29 569.816 C1462.493 569.816 1459.931 572.562 1459.931 576.566 C1459.931 580.57 1462.493 583.293 1466.29 583.293 Z M1466.29 580.719 C1464.302 580.719 1463.044 579.141 1463.044 576.566 C1463.044 573.98 1464.313 572.391 1466.29 572.391 C1468.255 572.391 1469.524 573.992 1469.524 576.566 C1469.524 579.129 1468.267 580.719 1466.29 580.719 Z M1474.774 583 L1477.852 583 L1477.852 575.699 C1477.852 573.688 1478.985 572.672 1480.45 572.672 C1481.059 572.672 1481.672 572.734 1481.903 572.77 L1481.903 570.035 C1481.661 570.012 1481.317 569.988 1480.903 569.988 C1479.243 569.988 1478.254 570.77 1477.778 572.246 L1477.739 572.246 L1477.739 570.109 L1474.774 570.109 L1474.774 583 Z M1483.673 583 L1486.751 583 L1486.751 570.109 L1483.673 570.109 L1483.673 583 Z M1485.212 568.191 C1486.263 568.191 1487.056 567.438 1487.056 566.434 C1487.056 565.445 1486.263 564.688 1485.212 564.688 C1484.161 564.688 1483.368 565.445 1483.368 566.434 C1483.368 567.438 1484.161 568.191 1485.212 568.191 Z M1492.562 575.711 C1492.562 573.516 1493.769 572.551 1495.378 572.551 C1497.026 572.551 1497.979 573.539 1497.979 575.43 L1497.979 583 L1501.069 583 L1501.069 574.941 C1501.069 571.637 1499.163 569.852 1496.468 569.852 C1494.694 569.852 1493.39 570.633 1492.511 572.086 L1492.511 570.109 L1489.483 570.109 L1489.483 583 L1492.562 583 L1492.562 575.711 Z M1509.65 588.273 C1513.142 588.273 1515.74 586.664 1515.74 582.672 L1515.74 570.109 L1512.701 570.109 L1512.701 572.027 L1512.689 572.027 C1511.833 570.547 1510.431 569.852 1508.759 569.852 C1505.451 569.852 1503.205 572.574 1503.205 576.492 C1503.205 580.375 1505.416 583.086 1508.783 583.086 C1510.478 583.086 1511.845 582.402 1512.677 580.887 L1512.689 580.887 L1512.689 582.852 C1512.689 584.832 1511.58 585.895 1509.65 585.895 C1508.208 585.895 1507.146 585.309 1506.853 584.195 L1503.837 584.195 C1504.181 586.699 1506.244 588.273 1509.65 588.273 Z M1509.501 580.547 C1507.599 580.547 1506.318 579.094 1506.318 576.457 C1506.318 573.832 1507.599 572.367 1509.501 572.367 C1511.517 572.367 1512.837 573.98 1512.837 576.457 C1512.837 578.934 1511.517 580.547 1509.501 580.547 Z"
         id="path54" />
    </g>
  </g>
</svg>
