<svg xmlns="http://www.w3.org/2000/svg" viewBox="0 0 440 820" preserveAspectRatio="xMidYMid slice"><path d="M352.8 170.0 L356.0 171.9 L357.5 174.1 L357.3 176.2 L355.9 178.0 L353.8 179.4 L351.4 180.5 L349.0 181.3 L346.9 182.1 L345.0 182.8 L343.1 183.5 L341.1 183.8 L338.9 183.6 L336.6 182.7 L334.3 180.9 L332.3 178.3 L330.9 175.2 L330.1 172.2 L330.0 169.7 L330.3 168.4 L330.4 168.6 L329.9 170.3 L328.2 173.5 L325.0 177.5 L320.5 181.8 L315.0 185.4 L309.2 187.8 L303.9 188.7 L300.1 187.8 L298.2 185.6 L298.6 182.4 L301.2 178.8 L305.6 175.5 L310.8 172.9 L316.1 171.0 L320.8 170.0 L324.1 169.6 L326.0 169.4 L326.5 169.2 L326.0 168.8 L325.0 168.0 L323.9 167.0 L323.1 165.9 L322.8 164.8 L322.9 163.9 L323.1 163.0 L323.5 161.9 L323.8 160.5 L324.0 158.5 L324.4 155.9 L325.2 152.7 L326.6 149.2 L328.7 145.9 L331.5 143.5 L334.6 142.4 L337.5 143.0 L339.8 145.4 L340.8 149.4 L340.2 154.4 L338.2 159.9 L335.0 164.9 L331.3 168.9 L328.0 171.4 L325.9 172.4 L325.7 172.1 L327.4 171.0 L331.2 169.6 L336.4 168.5 L342.3 168.2 L348.0 168.7 L352.8 170.0 Z" fill="none" stroke="#163E2A" stroke-width="1.1" opacity="0.130"/><path d="M373.0 170.0 L370.2 173.0 L367.5 175.6 L364.9 177.9 L362.7 180.1 L360.5 182.0 L358.1 183.8 L355.4 185.2 L352.3 186.0 L348.8 186.1 L345.2 185.6 L341.8 184.7 L339.0 183.7 L336.8 183.1 L335.3 183.4 L334.2 185.0 L333.0 188.1 L331.2 192.4 L328.5 197.4 L324.6 202.5 L319.7 206.9 L314.2 209.8 L308.8 210.7 L304.1 209.5 L300.8 206.2 L299.4 201.4 L299.9 195.8 L302.0 190.1 L305.0 184.9 L308.3 180.6 L311.0 177.5 L312.6 175.4 L312.8 173.9 L311.7 172.7 L309.6 171.5 L307.0 170.0 L304.5 168.1 L302.5 165.9 L301.3 163.5 L300.9 161.0 L301.0 158.6 L301.5 156.0 L302.0 153.3 L302.6 150.4 L303.2 147.0 L304.1 143.3 L305.5 139.5 L307.7 136.0 L310.9 133.3 L314.9 132.0 L319.5 132.3 L324.1 134.4 L328.3 138.3 L331.5 143.3 L333.5 148.9 L334.4 154.1 L334.6 158.3 L334.7 161.0 L335.4 161.8 L337.2 161.0 L340.6 159.1 L345.5 156.7 L351.7 154.5 L358.4 153.1 L364.9 152.9 L370.4 154.0 L374.4 156.3 L376.4 159.5 L376.6 163.1 L375.3 166.7 L373.0 170.0 Z" fill="none" stroke="#163E2A" stroke-width="1.1" opacity="0.128"/><path d="M376.5 170.0 L375.5 173.4 L374.0 176.6 L371.9 179.5 L369.2 182.1 L366.1 184.3 L362.9 186.1 L360.0 187.9 L357.7 189.9 L356.2 192.4 L355.3 196.0 L354.6 200.6 L353.7 206.1 L352.0 212.3 L349.1 218.3 L344.9 223.5 L339.4 227.1 L333.2 228.6 L326.8 227.6 L321.0 224.4 L316.3 219.2 L313.0 213.0 L311.0 206.4 L310.1 200.3 L309.6 195.3 L309.0 191.6 L307.5 189.3 L305.0 187.9 L301.4 187.0 L296.9 186.2 L292.0 185.0 L287.2 183.2 L283.1 180.6 L279.9 177.5 L277.7 173.9 L276.5 170.0 L275.9 166.0 L275.6 161.9 L275.5 157.7 L275.6 153.3 L276.0 148.7 L277.1 144.1 L279.1 139.7 L282.4 135.9 L287.1 133.2 L292.9 131.9 L299.5 132.1 L306.3 133.9 L312.7 136.9 L318.2 140.3 L322.6 143.6 L326.0 145.9 L328.7 146.7 L331.3 145.7 L334.4 143.1 L338.5 139.3 L343.9 135.0 L350.3 131.0 L357.5 128.1 L364.7 126.9 L371.3 127.5 L376.6 130.0 L380.3 133.9 L382.3 138.8 L382.7 144.2 L382.1 149.4 L380.8 154.4 L379.5 158.8 L378.3 162.8 L377.3 166.5 L376.5 170.0 Z" fill="none" stroke="#163E2A" stroke-width="1.1" opacity="0.126"/><path d="M387.5 170.0 L386.7 174.2 L385.8 178.3 L385.4 182.5 L385.7 187.1 L386.5 192.3 L387.6 198.2 L388.5 204.8 L388.4 211.9 L387.0 218.9 L383.6 225.1 L378.3 230.0 L371.3 232.9 L363.1 233.5 L354.5 231.9 L346.2 228.4 L338.9 223.6 L332.7 218.5 L327.6 213.9 L323.3 210.3 L319.4 208.1 L315.2 207.4 L310.3 207.9 L304.5 208.9 L297.9 209.9 L290.8 210.3 L283.7 209.7 L277.1 207.9 L271.3 205.0 L266.6 201.0 L263.0 196.5 L260.2 191.5 L258.0 186.3 L256.1 181.0 L254.6 175.6 L253.5 170.0 L253.2 164.3 L254.0 158.7 L256.3 153.3 L260.2 148.5 L265.8 144.6 L272.6 141.9 L280.1 140.2 L287.5 139.6 L294.4 139.4 L300.0 139.2 L304.5 138.3 L307.8 136.1 L310.4 132.5 L313.1 127.4 L316.4 121.2 L320.9 114.8 L326.6 108.8 L333.6 104.1 L341.3 101.4 L349.2 101.0 L356.6 102.9 L362.9 106.8 L368.0 112.2 L371.7 118.2 L374.3 124.4 L376.3 130.3 L378.0 135.6 L379.7 140.4 L381.7 144.7 L383.7 148.8 L385.6 152.9 L387.1 157.1 L388.0 161.4 L388.1 165.7 L387.5 170.0 Z" fill="none" stroke="#163E2A" stroke-width="1.1" opacity="0.124"/><path d="M414.7 170.0 L418.5 176.5 L421.9 183.7 L424.2 191.3 L424.7 199.1 L422.8 206.7 L418.4 213.3 L411.6 218.6 L402.7 222.1 L392.7 223.7 L382.3 223.8 L372.4 222.6 L363.5 221.1 L356.0 219.9 L349.7 219.6 L344.1 220.7 L338.8 223.1 L333.1 226.7 L326.7 230.8 L319.3 234.7 L311.1 237.8 L302.5 239.4 L293.8 239.5 L285.5 237.8 L277.9 234.7 L271.3 230.4 L265.4 225.4 L260.2 220.0 L255.6 214.3 L251.4 208.5 L247.7 202.5 L244.7 196.2 L242.8 189.7 L242.4 183.0 L243.7 176.4 L246.7 170.0 L251.2 164.2 L256.6 159.1 L262.2 154.7 L267.4 150.7 L271.5 146.9 L274.2 142.7 L275.7 137.6 L276.2 131.5 L276.6 124.2 L277.5 116.1 L279.8 107.7 L283.9 99.8 L290.0 93.2 L297.7 88.6 L306.7 86.4 L316.2 86.6 L325.6 89.1 L334.2 93.2 L341.9 98.2 L348.5 103.5 L354.4 108.4 L359.8 112.8 L365.1 116.5 L370.5 119.7 L376.0 122.7 L381.5 125.8 L386.8 129.3 L391.5 133.4 L395.6 137.9 L399.0 142.7 L402.0 147.8 L404.8 153.1 L407.7 158.4 L411.0 164.0 L414.7 170.0 Z" fill="none" stroke="#163E2A" stroke-width="1.1" opacity="0.122"/><path d="M448.3 170.0 L446.3 178.6 L441.4 186.6 L434.1 193.6 L425.1 199.3 L415.4 203.7 L405.9 207.2 L397.5 210.2 L390.5 213.3 L384.9 217.1 L380.5 222.0 L376.7 228.0 L372.6 234.9 L367.7 242.3 L361.5 249.5 L353.9 255.7 L344.9 260.3 L335.1 263.0 L324.9 263.7 L314.7 262.6 L305.0 260.0 L295.8 256.3 L287.2 252.0 L279.2 247.4 L271.6 242.5 L264.5 237.3 L258.0 231.7 L252.4 225.6 L248.0 218.9 L244.9 211.7 L243.4 204.2 L243.3 196.7 L244.1 189.4 L245.3 182.6 L246.3 176.2 L246.3 170.0 L245.1 163.7 L242.6 157.0 L239.4 149.5 L236.0 141.1 L233.4 131.9 L232.5 122.3 L234.1 112.8 L238.3 104.3 L245.3 97.4 L254.6 92.5 L265.4 89.7 L276.9 89.1 L288.3 90.0 L299.1 92.0 L308.9 94.2 L317.8 96.2 L326.0 97.6 L333.9 98.3 L341.8 98.5 L349.9 98.5 L358.2 98.8 L366.6 99.7 L374.9 101.5 L382.9 104.3 L390.5 107.8 L397.6 112.0 L404.5 116.6 L411.4 121.5 L418.3 126.7 L425.4 132.3 L432.4 138.5 L438.8 145.4 L444.1 153.0 L447.4 161.3 L448.3 170.0 Z" fill="none" stroke="#163E2A" stroke-width="1.1" opacity="0.120"/><path d="M436.5 170.0 L430.9 177.4 L426.1 184.3 L422.8 191.0 L421.1 198.0 L420.6 205.8 L420.8 214.5 L420.6 224.0 L419.3 234.0 L416.2 243.9 L410.8 253.0 L403.1 260.8 L393.5 266.8 L382.5 270.8 L370.7 272.8 L358.7 273.3 L346.9 272.5 L335.5 271.0 L324.6 269.0 L314.0 266.8 L303.8 264.2 L293.9 261.1 L284.5 257.2 L275.8 252.6 L268.0 247.0 L261.3 240.6 L255.6 233.8 L250.7 226.8 L246.2 219.9 L241.5 213.3 L236.2 207.0 L230.0 200.8 L222.8 194.3 L215.0 187.1 L207.3 179.1 L200.5 170.0 L195.8 160.1 L193.9 149.7 L195.3 139.5 L200.1 130.0 L208.0 121.8 L218.2 115.2 L229.7 110.2 L241.6 106.7 L253.1 104.0 L263.6 101.7 L273.1 99.3 L281.7 96.4 L289.8 92.8 L297.8 88.8 L306.2 84.6 L315.3 80.7 L324.9 77.7 L335.2 75.7 L345.7 75.0 L356.3 75.5 L366.8 77.0 L377.3 79.3 L387.7 82.1 L398.0 85.5 L408.4 89.3 L418.7 93.9 L428.4 99.5 L437.1 106.2 L444.1 114.1 L448.9 123.1 L450.9 132.8 L450.3 142.8 L447.2 152.6 L442.3 161.7 L436.5 170.0 Z" fill="none" stroke="#163E2A" stroke-width="1.1" opacity="0.118"/><path d="M451.8 170.0 L457.5 179.4 L462.8 189.8 L466.5 200.9 L467.8 212.4 L466.2 223.8 L461.4 234.4 L453.8 243.7 L443.8 251.5 L432.2 257.6 L419.8 262.3 L407.1 265.8 L394.7 268.5 L382.5 270.8 L370.7 272.7 L359.0 274.3 L347.4 275.4 L335.8 275.7 L324.2 275.1 L312.9 273.4 L302.0 270.7 L291.5 267.1 L281.5 263.0 L271.8 258.7 L262.0 254.5 L251.7 250.5 L240.8 246.5 L229.2 242.2 L217.2 237.2 L205.3 231.1 L194.5 223.5 L185.6 214.4 L179.5 204.1 L176.8 192.8 L177.6 181.2 L181.8 170.0 L188.6 159.6 L197.1 150.2 L206.2 142.0 L215.1 134.6 L222.9 127.7 L229.7 120.8 L235.3 113.6 L240.5 105.8 L245.6 97.6 L251.4 89.2 L258.4 81.0 L266.7 73.6 L276.4 67.2 L287.2 62.1 L298.9 58.4 L311.2 56.0 L323.7 54.5 L336.4 53.9 L349.2 54.0 L362.1 54.8 L375.0 56.5 L387.6 59.4 L399.7 63.7 L410.7 69.7 L420.1 77.4 L427.4 86.5 L432.6 96.5 L435.6 107.1 L437.1 117.5 L437.7 127.5 L438.4 136.7 L439.7 145.2 L442.4 153.3 L446.5 161.4 L451.8 170.0 Z" fill="none" stroke="#163E2A" stroke-width="1.1" opacity="0.116"/><path d="M501.5 170.0 L501.2 182.6 L497.4 194.9 L490.7 206.4 L481.8 216.7 L471.6 225.9 L461.0 234.2 L450.3 241.7 L439.9 248.7 L429.7 255.5 L419.5 262.0 L409.0 268.1 L398.1 273.7 L386.5 278.4 L374.4 282.1 L361.9 284.6 L349.2 286.2 L336.4 287.1 L323.6 287.5 L310.6 287.7 L297.2 287.9 L283.2 288.0 L268.7 287.6 L253.7 286.3 L238.6 283.5 L224.2 278.8 L211.2 271.9 L200.4 262.8 L192.5 251.9 L187.8 239.7 L186.1 226.8 L186.9 214.0 L189.3 201.8 L192.5 190.5 L195.5 179.9 L197.5 170.0 L198.4 160.3 L198.3 150.4 L197.6 140.0 L197.2 129.1 L197.8 117.8 L200.0 106.3 L204.4 95.1 L210.9 84.7 L219.6 75.3 L229.9 67.1 L241.5 60.1 L254.0 54.2 L267.0 49.2 L280.5 45.0 L294.3 41.6 L308.4 39.2 L322.8 38.0 L337.2 38.4 L351.4 40.7 L364.8 44.9 L377.2 50.9 L388.2 58.4 L397.8 66.8 L406.1 75.4 L413.8 83.9 L421.3 91.7 L429.4 98.8 L438.5 105.4 L448.8 111.8 L460.0 118.7 L471.5 126.5 L482.4 135.5 L491.6 145.9 L498.2 157.6 L501.5 170.0 Z" fill="none" stroke="#163E2A" stroke-width="1.1" opacity="0.114"/><path d="M499.3 170.0 L493.7 182.1 L488.1 193.5 L482.6 204.5 L477.4 215.4 L472.0 226.1 L466.1 236.7 L459.2 247.0 L451.2 256.8 L441.9 265.9 L431.3 274.2 L419.8 281.5 L407.5 288.1 L394.7 294.2 L381.5 299.9 L367.7 305.4 L353.2 310.5 L337.9 315.0 L321.9 318.4 L305.2 320.1 L288.4 319.5 L272.0 316.3 L256.9 310.3 L243.5 301.8 L232.4 291.3 L223.6 279.4 L216.8 267.0 L211.6 254.8 L207.0 243.3 L202.3 232.6 L196.8 222.6 L190.3 213.0 L182.9 203.3 L175.0 193.1 L167.5 182.0 L161.3 170.0 L157.1 157.2 L155.5 144.0 L156.8 130.8 L160.9 118.0 L167.5 105.8 L175.9 94.5 L185.8 84.1 L196.7 74.5 L208.3 65.6 L220.6 57.5 L233.6 50.2 L247.4 44.1 L261.9 39.4 L277.0 36.3 L292.5 35.2 L307.8 35.9 L322.8 38.1 L337.0 41.5 L350.6 45.4 L363.6 49.3 L376.5 52.7 L389.7 55.5 L403.7 57.8 L418.6 60.0 L434.3 62.7 L450.4 66.7 L466.1 72.5 L480.4 80.4 L492.4 90.4 L501.3 102.4 L506.7 115.6 L508.7 129.6 L507.6 143.6 L504.2 157.1 L499.3 170.0 Z" fill="none" stroke="#163E2A" stroke-width="1.1" opacity="0.112"/><path d="M503.2 170.0 L504.6 182.9 L504.8 196.0 L503.3 209.2 L500.0 222.3 L494.8 235.1 L487.9 247.4 L479.6 259.1 L470.2 270.5 L459.9 281.4 L448.7 292.1 L436.5 302.4 L423.2 312.0 L408.4 320.5 L392.3 327.3 L375.1 331.9 L357.1 333.8 L338.9 332.8 L321.3 329.1 L304.7 323.0 L289.6 315.2 L275.9 306.6 L263.3 297.9 L251.4 289.8 L239.5 282.5 L227.0 275.9 L213.7 269.7 L199.6 263.4 L185.0 256.4 L170.7 248.0 L157.6 238.1 L146.5 226.5 L138.1 213.4 L132.8 199.3 L130.6 184.7 L131.2 170.0 L134.1 155.5 L138.7 141.5 L144.7 128.1 L151.7 115.1 L159.6 102.7 L168.6 90.9 L178.7 79.8 L190.1 69.8 L202.9 61.0 L216.8 53.6 L231.6 47.8 L246.9 43.3 L262.2 40.0 L277.4 37.2 L292.3 34.5 L307.1 31.5 L322.2 28.1 L338.0 24.3 L354.7 20.7 L372.4 17.8 L390.8 16.5 L409.5 17.4 L427.7 21.2 L444.4 27.9 L459.0 37.4 L470.8 49.3 L479.7 62.7 L486.0 77.1 L490.1 91.6 L492.8 105.7 L494.8 119.3 L496.7 132.3 L498.8 144.9 L501.1 157.4 L503.2 170.0 Z" fill="none" stroke="#163E2A" stroke-width="1.1" opacity="0.111"/><path d="M534.1 170.0 L534.5 185.1 L532.9 200.2 L529.8 215.2 L525.3 230.1 L519.5 244.8 L512.3 259.3 L503.5 273.3 L492.7 286.6 L479.9 298.6 L464.9 308.7 L448.1 316.7 L429.8 322.1 L410.7 324.9 L391.6 325.6 L373.0 324.5 L355.2 322.6 L338.2 320.4 L321.9 318.7 L305.6 317.7 L289.0 317.4 L271.6 317.5 L253.3 317.2 L234.3 315.8 L215.2 312.6 L196.7 307.1 L179.5 299.1 L164.5 288.5 L152.2 275.9 L142.7 261.8 L135.8 246.7 L131.4 231.1 L128.7 215.6 L127.5 200.1 L127.3 185.0 L128.1 170.0 L130.1 155.2 L133.4 140.7 L138.4 126.6 L145.1 113.1 L153.7 100.4 L163.8 88.6 L175.0 77.7 L187.0 67.6 L199.3 57.9 L211.8 48.4 L224.4 38.8 L237.4 28.9 L251.2 18.8 L266.2 8.9 L282.7 -0.0 L300.7 -7.3 L320.0 -12.1 L340.1 -13.9 L360.1 -12.2 L379.3 -7.1 L397.0 0.8 L412.9 11.0 L426.7 22.6 L438.9 34.8 L449.8 46.8 L460.1 58.4 L470.3 69.5 L480.6 80.3 L491.2 91.0 L501.6 102.2 L511.5 114.2 L520.1 127.0 L526.9 140.7 L531.7 155.1 L534.1 170.0 Z" fill="none" stroke="#163E2A" stroke-width="1.1" opacity="0.109"/><path d="M558.5 170.0 L558.6 186.9 L556.8 203.7 L552.7 220.4 L546.0 236.5 L536.5 251.5 L524.3 265.2 L509.7 277.1 L493.4 287.1 L476.1 295.3 L458.6 302.2 L441.3 308.2 L424.5 314.1 L408.3 320.2 L392.2 326.9 L375.7 334.2 L358.4 341.7 L339.8 348.7 L319.9 354.3 L299.0 357.8 L277.5 358.5 L256.3 355.9 L236.1 350.2 L217.5 341.5 L200.9 330.4 L186.4 317.7 L173.8 303.9 L162.9 289.7 L153.3 275.3 L144.6 260.8 L136.8 246.3 L130.0 231.5 L124.5 216.5 L120.6 201.2 L118.6 185.6 L118.5 170.0 L120.4 154.5 L123.8 139.3 L128.5 124.4 L134.0 109.7 L140.0 95.0 L146.5 80.1 L153.7 65.0 L162.1 49.7 L172.1 34.5 L184.2 20.1 L198.9 7.1 L216.0 -3.7 L235.4 -11.6 L256.2 -16.2 L277.8 -17.5 L299.3 -15.9 L320.0 -11.8 L339.6 -6.1 L358.0 0.3 L375.4 6.7 L392.3 12.8 L409.0 18.4 L426.0 23.7 L443.3 29.3 L460.7 35.6 L477.9 43.1 L494.3 52.3 L509.2 63.2 L522.3 75.8 L533.2 89.7 L542.0 104.8 L548.7 120.5 L553.5 136.7 L556.8 153.3 L558.5 170.0 Z" fill="none" stroke="#163E2A" stroke-width="1.1" opacity="0.107"/><path d="M571.4 170.0 L567.3 187.5 L560.3 204.3 L551.2 220.1 L540.4 234.8 L528.9 248.5 L517.2 261.7 L505.8 274.7 L494.7 288.0 L483.6 301.7 L471.9 315.9 L459.1 330.3 L444.3 344.2 L427.4 356.9 L408.2 367.4 L387.1 375.0 L364.6 379.2 L341.5 380.0 L318.6 377.4 L296.6 372.1 L275.8 364.7 L256.3 356.0 L238.0 346.4 L220.7 336.5 L204.2 326.3 L188.2 315.8 L172.9 304.7 L158.5 292.9 L145.3 280.0 L133.6 266.2 L123.7 251.5 L115.6 236.0 L109.2 220.0 L104.3 203.6 L100.4 186.9 L97.4 170.0 L95.2 152.7 L94.0 134.9 L94.3 116.7 L96.7 98.2 L101.9 79.9 L110.3 62.4 L122.3 46.3 L137.7 32.3 L156.0 20.8 L176.4 12.1 L197.9 5.9 L219.7 2.0 L241.1 -0.5 L261.7 -2.3 L281.6 -3.9 L300.9 -5.9 L320.2 -8.3 L339.9 -10.8 L360.2 -13.0 L381.3 -14.2 L402.8 -13.7 L424.3 -11.0 L445.4 -5.8 L465.3 1.9 L483.8 11.9 L500.5 23.8 L515.5 37.1 L528.8 51.6 L540.5 66.9 L550.8 82.8 L559.4 99.4 L566.1 116.6 L570.6 134.2 L572.5 152.1 L571.4 170.0 Z" fill="none" stroke="#163E2A" stroke-width="1.1" opacity="0.105"/><path d="M567.2 170.0 L565.2 187.4 L563.1 204.7 L561.1 222.3 L558.9 240.4 L555.8 259.2 L551.0 278.3 L543.6 297.3 L533.1 315.5 L519.1 332.2 L501.7 346.5 L481.3 358.0 L458.8 366.3 L435.0 371.5 L410.8 373.9 L386.9 374.3 L363.6 373.2 L341.0 371.3 L319.1 368.9 L297.6 366.2 L276.3 363.0 L255.1 359.0 L234.2 353.9 L213.7 347.3 L193.9 339.0 L175.3 329.1 L158.0 317.6 L142.0 304.7 L127.2 290.8 L113.6 276.0 L100.9 260.5 L89.1 244.1 L78.5 226.9 L69.5 208.8 L62.9 189.7 L59.2 170.0 L59.2 150.0 L63.3 130.3 L71.4 111.5 L83.3 94.1 L98.1 78.4 L114.9 64.6 L132.7 52.4 L150.6 41.5 L168.1 31.1 L185.0 20.9 L201.5 10.3 L218.1 -0.5 L235.4 -11.6 L253.8 -22.2 L273.8 -31.8 L295.4 -39.6 L318.2 -44.8 L341.9 -47.2 L365.8 -46.6 L389.3 -43.2 L412.1 -37.2 L433.8 -29.2 L454.4 -19.5 L473.8 -8.6 L492.0 3.4 L509.0 16.5 L524.5 30.6 L538.2 46.0 L549.7 62.4 L558.6 79.7 L564.7 97.8 L568.2 116.1 L569.4 134.4 L568.8 152.4 L567.2 170.0 Z" fill="none" stroke="#163E2A" stroke-width="1.1" opacity="0.103"/></svg>