<svg xmlns="http://www.w3.org/2000/svg" viewBox="0 0 440 820" preserveAspectRatio="xMidYMid slice"><path d="M351.9 150.0 L354.6 151.8 L355.9 153.9 L355.7 155.8 L354.5 157.5 L352.5 158.9 L350.4 160.0 L348.2 160.9 L346.3 161.6 L344.4 162.4 L342.7 163.0 L340.8 163.4 L338.8 163.3 L336.6 162.6 L334.4 161.1 L332.5 158.9 L331.0 156.3 L330.2 153.6 L329.9 151.5 L329.9 150.3 L329.9 150.5 L329.2 152.0 L327.6 154.6 L324.7 158.1 L320.6 161.6 L315.7 164.7 L310.5 166.7 L305.8 167.3 L302.3 166.5 L300.6 164.4 L300.9 161.5 L303.1 158.3 L306.8 155.3 L311.3 152.8 L315.9 151.0 L319.9 150.0 L322.8 149.5 L324.4 149.2 L324.9 148.8 L324.5 148.3 L323.7 147.5 L322.9 146.5 L322.3 145.4 L322.2 144.4 L322.3 143.4 L322.7 142.5 L323.2 141.5 L323.6 140.2 L324.0 138.5 L324.5 136.1 L325.4 133.3 L326.7 130.2 L328.8 127.4 L331.4 125.3 L334.2 124.3 L337.0 124.9 L339.1 127.0 L340.2 130.5 L339.9 135.0 L338.3 139.7 L335.6 144.2 L332.6 147.7 L329.9 150.1 L328.2 151.1 L328.1 150.9 L329.7 150.1 L333.0 149.1 L337.6 148.3 L342.8 148.1 L347.7 148.7 L351.8 150.0 Z" fill="none" stroke="#ffffff" stroke-width="1.1" opacity="0.180"/><path d="M370.7 150.0 L368.3 152.8 L365.8 155.3 L363.6 157.6 L361.5 159.7 L359.5 161.6 L357.3 163.4 L354.8 164.8 L351.9 165.7 L348.6 166.0 L345.3 165.7 L342.1 165.1 L339.4 164.3 L337.3 163.9 L335.7 164.3 L334.4 165.8 L333.0 168.4 L331.2 172.2 L328.5 176.5 L324.9 181.0 L320.3 184.7 L315.3 187.2 L310.3 187.9 L305.9 186.7 L302.9 183.7 L301.4 179.4 L301.6 174.4 L303.2 169.2 L305.6 164.5 L308.2 160.7 L310.4 157.7 L311.7 155.6 L311.8 154.1 L310.8 152.9 L308.9 151.6 L306.7 150.0 L304.5 148.1 L302.9 146.0 L301.9 143.6 L301.6 141.3 L301.8 138.9 L302.4 136.5 L303.0 133.9 L303.7 131.2 L304.4 128.1 L305.4 124.7 L306.9 121.3 L309.1 118.1 L312.1 115.7 L315.9 114.4 L320.1 114.6 L324.5 116.4 L328.3 119.7 L331.4 124.1 L333.5 128.9 L334.6 133.5 L335.1 137.2 L335.4 139.6 L336.3 140.5 L338.1 139.9 L341.3 138.4 L345.8 136.4 L351.4 134.7 L357.4 133.7 L363.2 133.7 L368.1 135.0 L371.6 137.2 L373.5 140.2 L373.7 143.5 L372.6 146.9 L370.7 150.0 Z" fill="none" stroke="#ffffff" stroke-width="1.1" opacity="0.177"/><path d="M375.0 150.0 L374.1 153.3 L372.7 156.4 L370.9 159.2 L368.4 161.8 L365.5 164.0 L362.5 165.9 L359.8 167.7 L357.5 169.7 L355.9 172.2 L354.8 175.5 L353.9 179.7 L352.8 184.7 L350.9 190.1 L348.0 195.5 L343.9 200.1 L338.8 203.3 L333.0 204.6 L327.1 203.8 L321.6 200.9 L317.1 196.4 L313.8 190.9 L311.7 185.1 L310.5 179.7 L309.8 175.1 L308.9 171.7 L307.3 169.5 L304.9 168.0 L301.4 167.0 L297.3 166.0 L292.9 164.7 L288.6 162.8 L284.8 160.2 L282.0 157.1 L280.1 153.7 L279.0 150.0 L278.4 146.2 L278.3 142.3 L278.3 138.3 L278.5 134.2 L279.0 129.9 L280.1 125.6 L282.1 121.5 L285.2 117.9 L289.6 115.3 L294.9 114.0 L301.0 114.0 L307.3 115.4 L313.2 117.8 L318.4 120.6 L322.6 123.4 L325.9 125.3 L328.7 126.0 L331.4 125.1 L334.5 122.9 L338.4 119.7 L343.5 116.0 L349.4 112.7 L356.0 110.3 L362.7 109.4 L368.7 110.2 L373.7 112.6 L377.1 116.2 L379.1 120.7 L379.7 125.6 L379.3 130.5 L378.4 135.1 L377.4 139.3 L376.4 143.1 L375.7 146.6 L375.0 150.0 Z" fill="none" stroke="#ffffff" stroke-width="1.1" opacity="0.175"/><path d="M385.8 150.0 L385.0 154.1 L384.2 158.1 L383.8 162.2 L383.8 166.6 L384.3 171.4 L385.0 177.0 L385.5 183.0 L385.1 189.5 L383.5 195.9 L380.1 201.6 L375.1 206.0 L368.6 208.8 L361.0 209.5 L353.1 208.2 L345.4 205.3 L338.5 201.3 L332.6 196.9 L327.7 192.9 L323.4 189.7 L319.5 187.8 L315.3 187.1 L310.6 187.3 L305.1 188.0 L298.9 188.7 L292.3 188.8 L285.8 187.9 L279.7 186.1 L274.4 183.2 L270.0 179.4 L266.6 175.0 L263.9 170.3 L261.8 165.4 L260.1 160.4 L258.7 155.3 L257.8 150.0 L257.5 144.7 L258.3 139.3 L260.4 134.2 L264.0 129.7 L269.0 125.9 L275.1 123.1 L281.9 121.4 L288.7 120.4 L295.0 120.0 L300.3 119.5 L304.6 118.4 L307.9 116.3 L310.7 113.0 L313.5 108.4 L316.9 103.0 L321.3 97.3 L326.8 92.1 L333.4 88.0 L340.6 85.7 L348.0 85.5 L354.9 87.3 L360.9 90.8 L365.7 95.6 L369.4 101.1 L372.1 106.7 L374.2 112.1 L376.1 117.0 L377.9 121.5 L379.9 125.6 L381.9 129.5 L383.8 133.5 L385.2 137.5 L386.1 141.7 L386.2 145.8 L385.8 150.0 Z" fill="none" stroke="#ffffff" stroke-width="1.1" opacity="0.172"/><path d="M410.6 150.0 L413.9 156.2 L416.7 162.9 L418.5 170.0 L418.8 177.3 L417.0 184.3 L412.8 190.6 L406.5 195.6 L398.5 199.0 L389.3 200.8 L379.8 201.2 L370.7 200.5 L362.5 199.5 L355.4 198.7 L349.3 198.6 L343.8 199.7 L338.6 201.9 L333.0 205.0 L326.8 208.6 L319.8 211.9 L312.1 214.5 L303.9 215.8 L295.8 215.6 L288.0 214.0 L280.9 211.0 L274.6 207.0 L269.0 202.3 L264.1 197.2 L259.7 191.9 L255.7 186.4 L252.2 180.7 L249.3 174.8 L247.5 168.7 L247.0 162.4 L248.0 156.0 L250.6 150.0 L254.5 144.4 L259.3 139.5 L264.3 135.1 L269.0 131.2 L272.8 127.4 L275.5 123.3 L277.1 118.5 L278.0 112.7 L278.7 106.0 L280.0 98.6 L282.5 91.0 L286.7 83.9 L292.5 78.0 L299.8 73.8 L308.2 71.8 L317.1 71.9 L325.8 74.0 L334.0 77.5 L341.2 81.9 L347.7 86.6 L353.4 91.0 L358.7 95.0 L363.8 98.4 L369.1 101.5 L374.4 104.4 L379.6 107.4 L384.6 110.9 L389.1 114.8 L393.0 119.1 L396.3 123.8 L399.1 128.7 L401.7 133.8 L404.4 138.9 L407.4 144.3 L410.6 150.0 Z" fill="none" stroke="#ffffff" stroke-width="1.1" opacity="0.169"/><path d="M441.0 150.0 L439.2 158.1 L434.9 165.6 L428.4 172.3 L420.4 177.8 L411.7 182.2 L403.1 185.8 L395.3 188.9 L388.8 192.1 L383.4 195.8 L379.1 200.5 L375.1 206.0 L370.9 212.4 L366.0 219.1 L359.9 225.5 L352.6 231.0 L344.1 235.2 L334.8 237.6 L325.2 238.2 L315.6 237.1 L306.4 234.8 L297.7 231.4 L289.6 227.5 L282.0 223.2 L274.8 218.6 L268.0 213.8 L261.8 208.5 L256.4 202.7 L252.0 196.4 L249.0 189.7 L247.3 182.6 L246.9 175.6 L247.4 168.7 L248.3 162.2 L249.0 156.0 L249.0 150.0 L248.0 143.9 L246.0 137.5 L243.3 130.4 L240.6 122.5 L238.7 113.9 L238.3 105.1 L240.0 96.4 L244.2 88.5 L250.8 82.0 L259.4 77.4 L269.3 74.6 L280.0 73.7 L290.5 74.3 L300.6 75.8 L309.8 77.5 L318.3 79.2 L326.2 80.3 L333.8 80.9 L341.4 81.1 L349.1 81.3 L357.1 81.7 L365.1 82.7 L373.0 84.5 L380.5 87.2 L387.7 90.7 L394.5 94.7 L401.0 99.2 L407.4 103.9 L413.8 108.9 L420.3 114.3 L426.7 120.2 L432.5 126.8 L437.2 134.0 L440.2 141.9 L441.0 150.0 Z" fill="none" stroke="#ffffff" stroke-width="1.1" opacity="0.167"/><path d="M432.1 150.0 L427.1 157.2 L422.9 163.8 L419.8 170.3 L418.1 177.1 L417.3 184.5 L417.0 192.6 L416.4 201.5 L414.7 210.7 L411.4 219.8 L406.1 228.2 L398.7 235.4 L389.7 240.9 L379.3 244.7 L368.3 246.7 L357.1 247.3 L346.0 246.8 L335.2 245.5 L324.9 243.8 L314.8 241.8 L305.1 239.4 L295.7 236.5 L286.8 232.9 L278.4 228.6 L270.9 223.4 L264.4 217.5 L258.8 211.1 L253.9 204.5 L249.5 198.0 L245.0 191.7 L240.0 185.6 L234.2 179.5 L227.7 173.1 L220.7 166.3 L213.9 158.6 L208.1 150.0 L204.0 140.7 L202.5 131.0 L203.9 121.5 L208.3 112.6 L215.5 104.8 L224.7 98.4 L235.2 93.5 L246.1 89.9 L256.6 87.0 L266.4 84.6 L275.3 82.1 L283.5 79.2 L291.3 75.8 L299.1 72.0 L307.2 68.2 L315.9 64.7 L325.2 62.0 L334.9 60.3 L344.9 59.8 L355.0 60.3 L364.9 61.8 L374.8 64.0 L384.6 66.8 L394.3 70.1 L404.0 73.9 L413.6 78.3 L422.6 83.6 L430.7 90.0 L437.3 97.5 L441.8 105.9 L443.9 114.9 L443.6 124.3 L441.1 133.5 L437.0 142.1 L432.1 150.0 Z" fill="none" stroke="#ffffff" stroke-width="1.1" opacity="0.164"/><path d="M446.6 150.0 L451.5 159.0 L455.9 168.7 L458.9 179.2 L459.8 189.9 L458.0 200.5 L453.4 210.4 L446.2 219.2 L436.9 226.6 L426.2 232.5 L414.7 237.1 L402.9 240.6 L391.2 243.3 L379.8 245.6 L368.7 247.6 L357.6 249.2 L346.6 250.2 L335.5 250.6 L324.5 250.1 L313.7 248.6 L303.3 246.0 L293.3 242.7 L283.7 238.9 L274.3 234.8 L265.0 230.8 L255.3 226.8 L245.1 222.8 L234.4 218.5 L223.3 213.5 L212.5 207.6 L202.6 200.3 L194.5 191.7 L188.9 181.9 L186.4 171.4 L187.0 160.6 L190.6 150.0 L196.5 140.1 L204.0 131.3 L212.1 123.3 L220.1 116.2 L227.3 109.4 L233.6 102.8 L239.1 95.8 L244.1 88.5 L249.3 80.8 L255.0 72.9 L261.9 65.4 L269.9 58.5 L279.2 52.6 L289.6 47.9 L300.6 44.5 L312.2 42.2 L324.0 40.9 L336.0 40.4 L348.1 40.5 L360.2 41.4 L372.4 43.1 L384.3 45.9 L395.6 50.0 L406.0 55.6 L414.9 62.7 L422.0 71.1 L427.2 80.4 L430.4 90.2 L432.3 99.9 L433.3 109.2 L434.2 117.9 L435.7 126.1 L438.3 133.9 L442.0 141.7 L446.6 150.0 Z" fill="none" stroke="#ffffff" stroke-width="1.1" opacity="0.161"/><path d="M490.9 150.0 L490.6 161.9 L487.1 173.4 L481.1 184.2 L473.0 194.0 L463.8 202.8 L454.0 210.8 L444.2 218.0 L434.5 224.8 L424.8 231.3 L415.2 237.6 L405.2 243.5 L394.8 248.7 L383.8 253.2 L372.3 256.7 L360.4 259.1 L348.3 260.7 L336.1 261.5 L323.9 261.9 L311.5 262.0 L298.8 262.0 L285.7 261.8 L272.1 261.2 L258.1 259.6 L244.1 256.7 L230.7 252.1 L218.6 245.6 L208.5 237.1 L200.9 226.9 L196.2 215.5 L194.2 203.6 L194.5 191.7 L196.3 180.3 L198.8 169.5 L201.2 159.5 L202.9 150.0 L203.7 140.7 L203.8 131.2 L203.5 121.4 L203.4 111.0 L204.3 100.4 L206.8 89.6 L211.2 79.2 L217.6 69.5 L225.8 60.7 L235.6 53.0 L246.6 46.4 L258.3 40.8 L270.6 36.0 L283.3 32.1 L296.3 28.9 L309.6 26.7 L323.2 25.6 L336.8 25.9 L350.2 28.0 L362.9 31.8 L374.7 37.2 L385.2 44.0 L394.5 51.7 L402.7 59.7 L410.2 67.5 L417.6 74.9 L425.4 81.7 L433.9 88.1 L443.5 94.4 L453.7 101.2 L464.1 108.7 L473.9 117.4 L482.1 127.4 L488.0 138.3 L490.9 150.0 Z" fill="none" stroke="#ffffff" stroke-width="1.1" opacity="0.158"/><path d="M490.2 150.0 L485.4 161.5 L480.3 172.4 L475.3 182.9 L470.4 193.2 L465.2 203.4 L459.5 213.5 L453.0 223.3 L445.2 232.5 L436.3 241.2 L426.2 249.0 L415.3 255.9 L403.6 262.2 L391.4 267.9 L378.8 273.2 L365.7 278.2 L351.9 282.8 L337.5 286.8 L322.3 289.7 L306.7 291.1 L290.9 290.4 L275.6 287.3 L261.3 281.8 L248.6 274.0 L237.9 264.4 L229.3 253.5 L222.6 242.1 L217.2 230.8 L212.4 220.0 L207.7 209.9 L202.4 200.4 L196.2 191.2 L189.4 181.8 L182.4 172.0 L175.7 161.4 L170.2 150.0 L166.7 137.9 L165.5 125.5 L166.9 113.1 L170.8 101.0 L176.9 89.6 L184.8 78.9 L194.1 69.0 L204.2 59.9 L215.1 51.5 L226.7 43.8 L239.0 36.9 L252.0 31.1 L265.7 26.6 L279.9 23.6 L294.5 22.3 L309.0 22.8 L323.1 24.6 L336.7 27.6 L349.7 31.0 L362.1 34.6 L374.5 37.8 L387.1 40.5 L400.3 42.9 L414.2 45.4 L428.8 48.4 L443.7 52.5 L458.2 58.2 L471.3 65.8 L482.4 75.3 L490.7 86.6 L495.8 99.0 L497.9 112.0 L497.2 125.1 L494.4 137.9 L490.2 150.0 Z" fill="none" stroke="#ffffff" stroke-width="1.1" opacity="0.156"/><path d="M494.9 150.0 L496.0 162.3 L496.0 174.7 L494.5 187.2 L491.2 199.6 L486.2 211.7 L479.6 223.3 L471.6 234.4 L462.7 245.1 L452.8 255.4 L442.1 265.3 L430.5 274.8 L417.8 283.7 L403.8 291.6 L388.6 297.9 L372.3 302.1 L355.4 304.0 L338.4 303.2 L321.8 300.0 L306.1 294.6 L291.7 287.7 L278.5 279.9 L266.4 272.0 L254.9 264.5 L243.4 257.6 L231.5 251.3 L219.0 245.2 L205.8 239.0 L192.4 232.0 L179.3 223.8 L167.3 214.3 L157.2 203.2 L149.5 190.9 L144.5 177.6 L142.4 163.8 L142.9 150.0 L145.5 136.4 L149.7 123.2 L155.2 110.4 L161.6 98.2 L169.0 86.4 L177.4 75.2 L186.9 64.7 L197.6 55.1 L209.6 46.7 L222.7 39.6 L236.6 34.0 L251.0 29.5 L265.4 26.1 L279.8 23.3 L294.0 20.7 L308.2 18.0 L322.6 14.9 L337.6 11.6 L353.4 8.6 L370.0 6.3 L387.3 5.4 L404.7 6.6 L421.7 10.3 L437.3 16.7 L451.0 25.6 L462.2 36.6 L470.9 49.1 L477.1 62.3 L481.5 75.8 L484.4 89.0 L486.7 101.8 L488.8 114.1 L490.9 126.1 L493.0 138.0 L494.9 150.0 Z" fill="none" stroke="#ffffff" stroke-width="1.1" opacity="0.153"/><path d="M523.0 150.0 L523.2 164.3 L521.7 178.5 L518.6 192.7 L514.3 206.7 L508.7 220.6 L501.8 234.2 L493.3 247.3 L483.1 259.7 L471.0 270.9 L456.9 280.5 L441.2 288.1 L424.1 293.4 L406.3 296.4 L388.4 297.3 L370.9 296.8 L354.0 295.3 L337.9 293.5 L322.2 292.1 L306.7 291.1 L290.9 290.6 L274.4 290.3 L257.2 289.7 L239.5 288.0 L221.7 284.6 L204.4 279.1 L188.5 271.4 L174.5 261.4 L162.9 249.6 L153.9 236.3 L147.3 222.2 L142.8 207.6 L140.1 193.0 L138.7 178.5 L138.3 164.1 L139.0 150.0 L140.8 136.0 L143.8 122.3 L148.5 108.9 L154.7 96.1 L162.7 83.9 L172.1 72.7 L182.7 62.2 L194.0 52.5 L205.6 43.3 L217.5 34.4 L229.6 25.3 L242.1 16.1 L255.4 6.8 L269.7 -2.1 L285.4 -10.2 L302.5 -16.7 L320.6 -21.0 L339.4 -22.5 L358.2 -20.9 L376.3 -16.4 L393.1 -9.1 L408.1 0.1 L421.4 10.7 L433.2 21.8 L443.8 32.9 L453.8 43.8 L463.7 54.2 L473.6 64.5 L483.5 74.8 L493.2 85.5 L502.3 97.0 L510.2 109.2 L516.5 122.2 L520.8 135.9 L523.0 150.0 Z" fill="none" stroke="#ffffff" stroke-width="1.1" opacity="0.150"/><path d="M545.4 150.0 L545.4 165.9 L543.6 181.8 L539.7 197.5 L533.4 212.6 L524.6 226.8 L513.2 239.8 L499.8 251.1 L484.7 260.8 L468.6 268.9 L452.2 275.7 L436.0 281.7 L420.2 287.4 L404.7 293.2 L389.2 299.5 L373.5 306.2 L356.9 312.9 L339.3 319.0 L320.5 323.9 L300.8 326.9 L280.7 327.2 L260.8 324.7 L241.8 319.2 L224.3 311.1 L208.5 300.9 L194.7 289.1 L182.7 276.3 L172.1 263.1 L162.8 249.6 L154.4 236.0 L147.0 222.3 L140.5 208.3 L135.2 194.1 L131.5 179.5 L129.5 164.8 L129.4 150.0 L131.1 135.3 L134.3 120.9 L138.7 106.7 L143.9 92.7 L149.8 78.8 L156.1 64.8 L163.2 50.6 L171.4 36.4 L181.1 22.3 L192.9 9.0 L206.8 -3.0 L223.0 -13.0 L241.2 -20.4 L260.7 -24.9 L280.9 -26.4 L301.1 -25.2 L320.6 -21.7 L339.1 -16.8 L356.6 -11.2 L373.2 -5.4 L389.3 0.2 L405.3 5.5 L421.4 10.7 L437.7 16.2 L454.1 22.4 L470.2 29.8 L485.4 38.6 L499.4 49.1 L511.6 61.1 L521.8 74.3 L529.9 88.5 L536.2 103.3 L540.8 118.6 L543.8 134.2 L545.4 150.0 Z" fill="none" stroke="#ffffff" stroke-width="1.1" opacity="0.148"/><path d="M557.8 150.0 L554.1 166.5 L547.9 182.4 L539.6 197.4 L529.8 211.5 L519.1 224.7 L508.2 237.3 L497.4 249.7 L486.7 262.3 L476.0 275.2 L464.6 288.4 L452.1 301.7 L437.9 314.4 L421.7 326.0 L403.5 335.6 L383.6 342.5 L362.5 346.5 L340.8 347.2 L319.3 345.0 L298.6 340.3 L278.9 333.6 L260.4 325.7 L243.0 316.9 L226.5 307.7 L210.7 298.2 L195.5 288.3 L181.0 277.8 L167.4 266.5 L154.9 254.3 L143.8 241.2 L134.4 227.2 L126.8 212.5 L120.7 197.4 L116.1 181.8 L112.5 166.1 L109.8 150.0 L107.9 133.6 L107.1 116.8 L107.8 99.7 L110.4 82.4 L115.5 65.3 L123.7 48.9 L135.0 33.8 L149.4 20.6 L166.4 9.7 L185.3 1.2 L205.3 -4.9 L225.6 -9.1 L245.7 -11.8 L265.1 -13.8 L283.9 -15.6 L302.3 -17.6 L320.7 -19.8 L339.4 -22.0 L358.7 -23.7 L378.6 -24.5 L398.8 -23.7 L419.1 -20.9 L438.8 -15.8 L457.5 -8.4 L474.9 1.0 L490.6 12.2 L504.7 24.8 L517.3 38.4 L528.4 52.8 L538.1 67.8 L546.2 83.5 L552.6 99.6 L556.9 116.2 L558.7 133.1 L557.8 150.0 Z" fill="none" stroke="#ffffff" stroke-width="1.1" opacity="0.145"/></svg>